<svg width="100" height="100" viewBox="0 0 100 100" fill="none" xmlns="http://www.w3.org/2000/svg">
<rect width="100" height="100" rx="6" fill="#0066FF"/>
<path d="M48.1781 42.9516C42.5149 39.0935 34.5671 37.3451 28.6515 36.6952C25.7237 36.3736 23.3333 38.7505 23.3333 41.6831V70.8881C23.3333 73.8207 25.7237 76.1985 28.6515 76.5202C34.5671 77.1701 42.5149 78.9185 48.1781 82.7766C48.7223 83.1473 49.3611 83.3327 49.9999 83.3327L49.9999 43.5077C49.3611 43.5077 48.7223 43.3224 48.1781 42.9516Z" fill="white"/>
<path opacity="0.4" d="M51.8218 42.9516C57.485 39.0935 65.4328 37.3451 71.3485 36.6952C74.2762 36.3736 76.6667 38.7505 76.6667 41.6831V70.8881C76.6667 73.8207 74.2762 76.1985 71.3485 76.5202C65.4328 77.1701 57.485 78.9185 51.8218 82.7766C51.2776 83.1473 50.6388 83.3327 50 83.3327L50 43.5077C50.6388 43.5077 51.2776 43.3224 51.8218 42.9516Z" fill="white"/>
<path fill-rule="evenodd" clip-rule="evenodd" d="M49.9996 29.166C48.0222 29.166 46.1756 29.6935 44.5847 30.6138C43.3896 31.3052 41.8603 30.8967 41.1689 29.7016C40.4776 28.5064 40.886 26.9771 42.0811 26.2858C44.4125 24.9371 47.1198 24.166 49.9996 24.166C52.8794 24.166 55.5867 24.9371 57.9181 26.2858C59.1132 26.9771 59.5216 28.5064 58.8303 29.7016C58.1389 30.8967 56.6096 31.3052 55.4145 30.6138C53.8236 29.6935 51.977 29.166 49.9996 29.166Z" fill="white"/>
<path fill-rule="evenodd" clip-rule="evenodd" d="M50.0001 19.166C45.5704 19.166 41.4705 20.5457 38.097 22.8988C36.9645 23.6887 35.4062 23.411 34.6163 22.2786C33.8264 21.1461 34.104 19.5878 35.2365 18.7978C39.4219 15.8785 44.5147 14.166 50.0001 14.166C55.4854 14.166 60.5783 15.8785 64.7636 18.7978C65.8961 19.5878 66.1738 21.1461 65.3839 22.2786C64.594 23.411 63.0356 23.6887 61.9031 22.8988C58.5296 20.5457 54.4297 19.166 50.0001 19.166Z" fill="white"/>
</svg>
