<svg width="24" height="24" viewBox="0 0 24 24" fill="none" xmlns="http://www.w3.org/2000/svg">
<g clip-path="url(#clip0_873_469)">
<path d="M22.5549 13.6617L20.6549 6.82569C20.0979 4.82302 18.8876 3.06398 17.2162 1.82816C15.5448 0.592343 13.5083 -0.0493232 11.4303 0.00515695C9.35238 0.0596371 7.35227 0.807137 5.74792 2.12884C4.14358 3.45054 3.02706 5.27059 2.57586 7.29969L1.10486 13.9147C0.942375 14.6456 0.946132 15.4037 1.11585 16.133C1.28557 16.8623 1.61692 17.5442 2.08544 18.1282C2.55396 18.7123 3.14768 19.1837 3.82277 19.5076C4.49786 19.8316 5.23708 19.9997 5.98586 19.9997H7.09986C7.32937 21.13 7.94259 22.1462 8.8356 22.8761C9.72861 23.606 10.8465 24.0047 11.9999 24.0047C13.1532 24.0047 14.2711 23.606 15.1641 22.8761C16.0571 22.1462 16.6703 21.13 16.8999 19.9997H17.7379C18.5087 19.9997 19.2691 19.8216 19.9596 19.4791C20.6502 19.1367 21.2522 18.6392 21.7187 18.0256C22.1852 17.4119 22.5034 16.6987 22.6487 15.9417C22.7939 15.1847 22.7621 14.4044 22.5559 13.6617H22.5549ZM11.9999 21.9997C11.3816 21.9971 10.7792 21.8036 10.2752 21.4456C9.77109 21.0876 9.38994 20.5826 9.18386 19.9997H14.8159C14.6098 20.5826 14.2286 21.0876 13.7246 21.4456C13.2205 21.8036 12.6181 21.9971 11.9999 21.9997ZM20.1259 16.8147C19.8472 17.1844 19.4862 17.4839 19.0715 17.6897C18.6568 17.8954 18.1998 18.0015 17.7369 17.9997H5.98586C5.53664 17.9996 5.09318 17.8987 4.6882 17.7043C4.28322 17.5099 3.92707 17.227 3.64602 16.8766C3.36498 16.5261 3.16622 16.1171 3.06442 15.6795C2.96262 15.242 2.96038 14.7872 3.05786 14.3487L4.52786 7.73269C4.88221 6.1389 5.75917 4.70929 7.01932 3.67114C8.27946 2.63298 9.85048 2.04586 11.4826 2.0031C13.1148 1.96035 14.7144 2.46441 16.0272 3.43516C17.3399 4.40591 18.2905 5.78764 18.7279 7.36069L20.6279 14.1967C20.7534 14.6421 20.7734 15.1106 20.6863 15.565C20.5991 16.0195 20.4072 16.4473 20.1259 16.8147Z" fill="white"/>
</g>
<defs>
<clipPath id="clip0_873_469">
<rect width="24" height="24" fill="white"/>
</clipPath>
</defs>
</svg>
