<svg width="100" height="100" viewBox="0 0 100 100" fill="none" xmlns="http://www.w3.org/2000/svg">
<rect width="100" height="100" rx="6" fill="#E90E09"/>
<path fill-rule="evenodd" clip-rule="evenodd" d="M45.7292 65.2957L57.168 83.2066C57.7438 84.1082 58.9271 84.397 59.8536 83.8621L65.0348 80.8708C66.0261 80.2984 66.3357 79.0124 65.7135 78.0516L55.9183 62.9258L45.7292 65.2957Z" fill="white"/>
<path opacity="0.4" d="M51.7107 23.2799C54.7639 19.994 60.1254 20.6 62.3681 24.4845L76.675 49.2648C78.9177 53.1493 76.7617 58.0955 72.3895 59.0966L35.9985 67.5609L25.9985 50.2404L51.7107 23.2799Z" fill="white"/>
<path d="M36.1605 65.758L27.8271 51.3243C26.4464 48.9328 23.3885 48.1134 20.997 49.4941C18.6056 50.8749 17.7862 53.9328 19.1669 56.3243L27.5002 70.758C28.8809 73.1495 31.9389 73.9689 34.3304 72.5882C36.7218 71.2074 37.5412 68.1495 36.1605 65.758Z" fill="white"/>
<path fill-rule="evenodd" clip-rule="evenodd" d="M76.7152 19.1324C78.0489 19.4898 78.8403 20.8606 78.483 22.1943L77.2629 26.7477C76.9055 28.0814 75.5347 28.8728 74.201 28.5155C72.8674 28.1581 72.0759 26.7873 72.4333 25.4536L73.6534 20.9002C74.0107 19.5665 75.3816 18.7751 76.7152 19.1324Z" fill="white"/>
<path fill-rule="evenodd" clip-rule="evenodd" d="M79.1001 37.0004C79.4575 35.6668 80.8283 34.8753 82.162 35.2327L86.7154 36.4528C88.049 36.8101 88.8405 38.181 88.4831 39.5146C88.1258 40.8483 86.755 41.6397 85.4213 41.2824L80.8679 40.0623C79.5342 39.7049 78.7427 38.3341 79.1001 37.0004Z" fill="white"/>
</svg>
