<svg width="100" height="100" viewBox="0 0 100 100" fill="none" xmlns="http://www.w3.org/2000/svg">
<rect width="100" height="100" rx="20" fill="url(#paint0_linear_919_1012)" fill-opacity="0.1"/>
<path d="M17 33C17 27.4772 21.4772 23 27 23H73.6667C79.1895 23 83.6667 27.4772 83.6667 33V66.3333C83.6667 71.8562 79.1895 76.3333 73.6667 76.3333H27C21.4772 76.3333 17 71.8562 17 66.3333V33Z" fill="url(#paint1_linear_919_1012)"/>
<path d="M30.3334 52.666C30.3334 51.0092 31.6765 49.666 33.3334 49.666H47.3334C48.9902 49.666 50.3334 51.0092 50.3334 52.666V61.9993C50.3334 62.5516 49.8857 62.9993 49.3334 62.9993H31.3334C30.7811 62.9993 30.3334 62.5516 30.3334 61.9993V52.666Z" fill="white"/>
<path fill-rule="evenodd" clip-rule="evenodd" d="M72.8333 43C72.8333 44.3807 71.714 45.5 70.3333 45.5L60.3333 45.5C58.9525 45.5 57.8333 44.3807 57.8333 43C57.8333 41.6193 58.9525 40.5 60.3333 40.5L70.3333 40.5C71.714 40.5 72.8333 41.6193 72.8333 43Z" fill="white"/>
<path fill-rule="evenodd" clip-rule="evenodd" d="M72.8333 56.334C72.8333 57.7147 71.714 58.834 70.3333 58.834L60.3333 58.834C58.9525 58.834 57.8333 57.7147 57.8333 56.334C57.8333 54.9533 58.9525 53.834 60.3333 53.834L70.3333 53.834C71.714 53.834 72.8333 54.9533 72.8333 56.334Z" fill="white"/>
<ellipse cx="40.3333" cy="43.0007" rx="6.66667" ry="6.66667" fill="white"/>
<defs>
<linearGradient id="paint0_linear_919_1012" x1="91.2501" y1="8.4375" x2="-4.55885" y2="77.9213" gradientUnits="userSpaceOnUse">
<stop stop-color="#E90E09"/>
<stop offset="1" stop-color="#E98F09"/>
</linearGradient>
<linearGradient id="paint1_linear_919_1012" x1="77.8334" y1="27.5" x2="24.3334" y2="76" gradientUnits="userSpaceOnUse">
<stop stop-color="#E90E09"/>
<stop offset="1" stop-color="#E98F09"/>
</linearGradient>
</defs>
</svg>
