<svg width="100" height="100" viewBox="0 0 100 100" fill="none" xmlns="http://www.w3.org/2000/svg">
<rect width="100" height="100" rx="20" fill="url(#paint0_linear_919_1038)" fill-opacity="0.1"/>
<path d="M41.4552 14.1707C46.7427 11.2764 53.2573 11.2764 58.5448 14.1707L78.4552 25.0694C83.7427 27.9637 87 33.3127 87 39.1013V60.8987C87 66.6873 83.7427 72.0362 78.4552 74.9306L58.5448 85.8293C53.2572 88.7236 46.7427 88.7236 41.4552 85.8293L21.5448 74.9306C16.2573 72.0362 13 66.6873 13 60.8987V39.1013C13 33.3127 16.2573 27.9637 21.5448 25.0694L41.4552 14.1707Z" fill="url(#paint1_linear_919_1038)"/>
<path d="M54.1111 30.9992C54.1111 33.0979 52.2705 34.7992 50 34.7992C47.7295 34.7992 45.8889 33.0979 45.8889 30.9992C45.8889 28.9005 47.7295 27.1992 50 27.1992C52.2705 27.1992 54.1111 28.9005 54.1111 30.9992Z" fill="white"/>
<path fill-rule="evenodd" clip-rule="evenodd" d="M42.8057 42.4008C42.8057 40.8268 44.1861 39.5508 45.889 39.5508H50.0001C51.703 39.5508 53.0834 40.8268 53.0834 42.4008V69.0008C53.0834 70.5748 51.703 71.8508 50.0001 71.8508C48.2972 71.8508 46.9168 70.5748 46.9168 69.0008V45.2508H45.889C44.1861 45.2508 42.8057 43.9748 42.8057 42.4008Z" fill="white"/>
<defs>
<linearGradient id="paint0_linear_919_1038" x1="91.2501" y1="8.4375" x2="-4.55885" y2="77.9213" gradientUnits="userSpaceOnUse">
<stop stop-color="#E90E09"/>
<stop offset="1" stop-color="#E98F09"/>
</linearGradient>
<linearGradient id="paint1_linear_919_1038" x1="80.525" y1="18.4125" x2="8.33408" y2="69.39" gradientUnits="userSpaceOnUse">
<stop stop-color="#E90E09"/>
<stop offset="1" stop-color="#E98F09"/>
</linearGradient>
</defs>
</svg>
