<svg width="101" height="100" viewBox="0 0 101 100" fill="none" xmlns="http://www.w3.org/2000/svg">
<rect x="0.5" width="100" height="100" rx="20" fill="url(#paint0_linear_919_1030)" fill-opacity="0.1"/>
<path d="M17.1667 36.6663C17.1667 32.9844 20.1515 29.9996 23.8334 29.9996H31.4949C33.0087 29.9996 34.4774 29.4844 35.6595 28.5387L46.3354 19.998C48.7702 18.0502 52.2299 18.0502 54.6647 19.998L65.3407 28.5387C66.5227 29.4844 67.9915 29.9996 69.5053 29.9996H77.1668C80.8487 29.9996 83.8334 32.9844 83.8334 36.6663V76.6663C83.8334 80.3482 80.8487 83.3329 77.1668 83.3329H23.8334C20.1515 83.3329 17.1667 80.3482 17.1667 76.6663V36.6663Z" fill="url(#paint1_linear_919_1030)"/>
<path d="M40.5 64C40.5 61.7909 42.2909 60 44.5 60H56.5C58.7091 60 60.5 61.7909 60.5 64V83.3333H40.5V64Z" fill="white"/>
<path d="M57.1668 43.3333C57.1668 39.6514 54.1821 36.6667 50.5002 36.6667C46.8183 36.6667 43.8335 39.6514 43.8335 43.3333C43.8335 47.0152 46.8183 50 50.5002 50C54.1821 50 57.1668 47.0152 57.1668 43.3333Z" fill="white"/>
<defs>
<linearGradient id="paint0_linear_919_1030" x1="91.7501" y1="8.4375" x2="-4.05885" y2="77.9213" gradientUnits="userSpaceOnUse">
<stop stop-color="#E90E09"/>
<stop offset="1" stop-color="#E98F09"/>
</linearGradient>
<linearGradient id="paint1_linear_919_1030" x1="78.0001" y1="24.0043" x2="15.3916" y2="70.721" gradientUnits="userSpaceOnUse">
<stop stop-color="#E90E09"/>
<stop offset="1" stop-color="#E98F09"/>
</linearGradient>
</defs>
</svg>
