<svg width="100" height="100" viewBox="0 0 100 100" fill="none" xmlns="http://www.w3.org/2000/svg">
<rect width="100" height="100" rx="20" fill="url(#paint0_linear_919_1017)" fill-opacity="0.1"/>
<path d="M80 66.6667V33.3333C80 25.9695 74.0305 20 66.6667 20H36.6667H33.3333C25.9695 20 20 25.9695 20 33.3333V66.6667C20 74.0305 25.9695 80 33.3333 80H66.6667C74.0305 80 80 74.0305 80 66.6667Z" fill="url(#paint1_linear_919_1017)"/>
<path fill-rule="evenodd" clip-rule="evenodd" d="M34.1667 40.334C34.1667 38.9533 35.286 37.834 36.6667 37.834H63.3334C64.7141 37.834 65.8334 38.9533 65.8334 40.334C65.8334 41.7147 64.7141 42.834 63.3334 42.834H36.6667C35.286 42.834 34.1667 41.7147 34.1667 40.334Z" fill="white"/>
<path fill-rule="evenodd" clip-rule="evenodd" d="M34.1667 53.668C34.1667 52.2873 35.286 51.168 36.6667 51.168H63.3334C64.7141 51.168 65.8334 52.2873 65.8334 53.668C65.8334 55.0487 64.7141 56.168 63.3334 56.168H36.6667C35.286 56.168 34.1667 55.0487 34.1667 53.668Z" fill="white"/>
<path fill-rule="evenodd" clip-rule="evenodd" d="M34.1667 67C34.1667 65.6193 35.286 64.5 36.6667 64.5H50.0001C51.3808 64.5 52.5001 65.6193 52.5001 67C52.5001 68.3807 51.3808 69.5 50.0001 69.5H36.6667C35.286 69.5 34.1667 68.3807 34.1667 67Z" fill="white"/>
<defs>
<linearGradient id="paint0_linear_919_1017" x1="91.2501" y1="8.4375" x2="-4.55885" y2="77.9213" gradientUnits="userSpaceOnUse">
<stop stop-color="#E90E09"/>
<stop offset="1" stop-color="#E98F09"/>
</linearGradient>
<linearGradient id="paint1_linear_919_1017" x1="26.5" y1="79.666" x2="76.5" y2="22.166" gradientUnits="userSpaceOnUse">
<stop stop-color="#FFAF13"/>
<stop offset="1" stop-color="#E90E09"/>
</linearGradient>
</defs>
</svg>
