<svg width="100" height="100" viewBox="0 0 100 100" fill="none" xmlns="http://www.w3.org/2000/svg">
<rect width="100" height="100" rx="20" fill="url(#paint0_linear_919_1026)" fill-opacity="0.1"/>
<path fill-rule="evenodd" clip-rule="evenodd" d="M45.7292 65.2957L57.168 83.2066C57.7438 84.1082 58.9271 84.397 59.8536 83.8621L65.0348 80.8708C66.0261 80.2984 66.3357 79.0124 65.7135 78.0516L55.9183 62.9258L45.7292 65.2957Z" fill="url(#paint1_linear_919_1026)"/>
<path d="M51.7107 23.2799C54.7639 19.994 60.1254 20.6 62.3681 24.4845L76.675 49.2648C78.9177 53.1493 76.7617 58.0955 72.3895 59.0966L35.9985 67.5609L25.9985 50.2404L51.7107 23.2799Z" fill="url(#paint2_linear_919_1026)"/>
<path d="M36.1605 65.758L27.8271 51.3243C26.4464 48.9328 23.3885 48.1134 20.997 49.4941C18.6056 50.8749 17.7862 53.9328 19.1669 56.3243L27.5002 70.758C28.8809 73.1495 31.9389 73.9689 34.3304 72.5882C36.7218 71.2074 37.5412 68.1495 36.1605 65.758Z" fill="url(#paint3_linear_919_1026)"/>
<path fill-rule="evenodd" clip-rule="evenodd" d="M76.7152 19.1324C78.0489 19.4898 78.8403 20.8606 78.483 22.1943L77.2629 26.7477C76.9055 28.0814 75.5347 28.8728 74.201 28.5155C72.8674 28.1581 72.0759 26.7873 72.4333 25.4536L73.6534 20.9002C74.0107 19.5665 75.3816 18.7751 76.7152 19.1324Z" fill="url(#paint4_linear_919_1026)"/>
<path fill-rule="evenodd" clip-rule="evenodd" d="M79.1001 37.0004C79.4575 35.6668 80.8283 34.8753 82.162 35.2327L86.7154 36.4528C88.049 36.8101 88.8405 38.181 88.4831 39.5146C88.1258 40.8483 86.755 41.6397 85.4213 41.2824L80.8679 40.0623C79.5342 39.7049 78.7427 38.3341 79.1001 37.0004Z" fill="url(#paint5_linear_919_1026)"/>
<path fill-rule="evenodd" clip-rule="evenodd" d="M55.1422 28.2888C56.3253 27.577 57.8209 27.8917 58.4827 28.9916L71.2639 50.2358C71.9257 51.3357 71.5031 52.8044 70.32 53.5162C69.1369 54.228 67.6413 53.9134 66.9795 52.8134L54.1983 31.5693C53.5365 30.4693 53.9591 29.0006 55.1422 28.2888Z" fill="white"/>
<defs>
<linearGradient id="paint0_linear_919_1026" x1="91.2501" y1="8.4375" x2="-4.55885" y2="77.9213" gradientUnits="userSpaceOnUse">
<stop stop-color="#E90E09"/>
<stop offset="1" stop-color="#E98F09"/>
</linearGradient>
<linearGradient id="paint1_linear_919_1026" x1="64.2583" y1="64.7149" x2="44.2308" y2="78.624" gradientUnits="userSpaceOnUse">
<stop stop-color="#E90E09"/>
<stop offset="1" stop-color="#E98F09"/>
</linearGradient>
<linearGradient id="paint2_linear_919_1026" x1="74.9325" y1="53.735" x2="29.2945" y2="31.9068" gradientUnits="userSpaceOnUse">
<stop stop-color="#E90E09"/>
<stop offset="1" stop-color="#E98F09"/>
</linearGradient>
<linearGradient id="paint3_linear_919_1026" x1="36.7631" y1="68.4893" x2="18.8754" y2="69.3196" gradientUnits="userSpaceOnUse">
<stop stop-color="#E90E09"/>
<stop offset="1" stop-color="#E98F09"/>
</linearGradient>
<linearGradient id="paint4_linear_919_1026" x1="76.7033" y1="19.1057" x2="72.6841" y2="28.1123" gradientUnits="userSpaceOnUse">
<stop stop-color="#E90E09"/>
<stop offset="1" stop-color="#E98F09"/>
</linearGradient>
<linearGradient id="paint5_linear_919_1026" x1="85.0368" y1="33.5393" x2="81.0176" y2="42.5459" gradientUnits="userSpaceOnUse">
<stop stop-color="#E90E09"/>
<stop offset="1" stop-color="#E98F09"/>
</linearGradient>
</defs>
</svg>
