<svg width="663" height="497" viewBox="0 0 663 497" fill="none" xmlns="http://www.w3.org/2000/svg">
<path d="M32.6111 389.44C61.4102 376.601 94.1043 378.258 124.312 384.636C156.261 391.387 187.007 403.149 219.246 408.616C237.105 411.64 255.338 412.716 273.322 409.9C274.109 409.776 273.777 408.575 272.99 408.699C239.591 413.876 206.193 405.593 174.244 396.564C143.664 387.908 112.71 378.299 80.5543 378.548C63.8964 378.672 47.28 381.571 31.9895 388.363C31.2437 388.695 31.8652 389.772 32.6111 389.44Z" fill="#E8E8E8"/>
<path d="M193.886 400.126C232.92 400.913 270.711 390.103 308.875 383.684C320.022 381.82 331.251 380.329 342.564 379.583C343.351 379.542 343.351 378.299 342.564 378.341C303.488 380.909 265.822 392.588 227.036 397.144C216.055 398.428 204.991 399.132 193.927 398.925C193.057 398.884 193.057 400.126 193.886 400.126Z" fill="#E8E8E8"/>
<path d="M376.335 386.21C390.217 383.228 404.596 382.731 418.643 384.884C431.572 386.872 443.961 391.138 456.185 395.694C468.244 400.167 480.219 404.93 492.733 408.119C505.662 411.391 518.797 412.219 532.14 412.219C547.887 412.219 563.757 411.598 579.213 415.077C580.001 415.243 580.332 414.042 579.545 413.876C552.238 407.746 523.936 413.959 496.628 407.746C471.144 401.948 447.856 388.902 422.082 384.222C406.833 381.447 391.17 381.778 376.045 385.009C375.217 385.174 375.548 386.375 376.335 386.21Z" fill="#E8E8E8"/>
<path d="M150.003 226.964C146.44 225.887 139.437 222.946 142.047 217.976C143.912 214.414 149.465 214.125 152.904 214.249C164.507 214.58 176.109 215.574 187.712 214.622C198.61 213.71 209.01 210.604 219.618 208.119C230.392 205.551 241.787 203.688 252.644 206.835C257.409 208.202 261.843 210.48 266.526 212.054C268.763 212.799 271.084 213.379 273.446 213.628C276.263 213.917 279.081 213.503 281.858 213.379C284.717 213.255 287.659 213.338 290.104 215.036C292.341 216.568 294.206 219.467 292.756 222.159C290.684 226.053 284.634 224.976 281.153 224.23C270.835 222.077 260.434 221.414 249.951 222.822C244.398 223.568 238.97 224.934 233.666 226.632C227.947 228.455 222.395 230.07 216.303 229.242C210.626 228.455 205.198 226.632 199.438 226.425C193.679 226.177 187.96 226.922 182.283 227.668C171.261 229.159 159.493 231.064 149.175 225.721C148.47 225.348 147.849 226.425 148.553 226.798C158.208 231.809 169.106 230.65 179.548 229.283C185.018 228.538 190.529 227.751 196.082 227.626C202.173 227.502 207.85 228.91 213.776 230.07C219.826 231.23 225.295 230.608 231.179 228.786C237.022 226.964 242.782 225.183 248.832 224.272C255.089 223.319 261.429 223.071 267.727 223.526C273.321 223.899 278.667 225.39 284.178 226.011C287.452 226.384 291.637 226.26 293.667 223.195C295.988 219.674 293.501 215.574 290.311 213.628C285.463 210.687 279.454 212.758 274.192 212.427C268.39 212.054 263.045 209.362 257.699 207.291C246.594 202.983 235.24 203.522 223.762 205.965C211.621 208.533 199.811 212.468 187.38 213.462C180.211 214.042 172.96 213.917 165.791 213.628C162.062 213.462 158.291 213.296 154.562 213.131C152.241 213.048 149.962 213.006 147.683 213.462C144.161 214.166 140.141 216.237 140.39 220.42C140.68 225.017 145.984 227.129 149.713 228.248C150.418 228.413 150.749 227.212 150.003 226.964Z" fill="#E8E8E8"/>
<path d="M455.812 74.177C452.249 73.68 446.406 72.3961 445.37 68.3373C443.878 62.7046 451.917 60.9237 455.812 60.2196C467.207 58.273 478.893 60.0539 490.371 60.0539C513.12 60.0125 535.538 55.7052 558.163 54.0899C569.475 53.2616 580.871 53.1374 592.142 54.5869C594.711 54.9183 597.404 55.1668 599.89 55.9123C600.926 56.2022 602.087 56.6992 602.874 57.4447C604.78 59.3084 602.915 61.0065 601.175 61.9177C596.7 64.2784 591.603 65.231 586.589 65.4381C576.561 65.8937 566.575 63.8229 556.547 64.1956C551.864 64.3613 547.265 65.1482 542.831 66.7634C537.651 68.6686 532.844 71.3607 527.623 73.1416C521.574 75.2124 515.192 76.2479 508.769 76.2479C502.264 76.2479 495.841 75.2539 489.418 74.5084C476.407 73.0174 463.354 73.0588 450.384 74.7983C449.597 74.9225 449.597 76.165 450.384 76.0408C463.064 74.3427 475.909 74.2184 488.631 75.668C494.929 76.3721 501.228 77.3661 507.609 77.4904C513.493 77.6146 519.419 76.8691 525.096 75.2539C530.897 73.5972 536.201 70.7394 541.795 68.5029C547.223 66.3493 552.817 65.3967 558.619 65.3967C569.309 65.3139 580.042 67.716 590.733 66.3079C593.343 65.9765 595.871 65.3967 598.357 64.4855C600.263 63.7814 602.832 62.9117 604.2 61.2964C606.769 58.1902 603.04 55.4567 600.263 54.6698C594.794 53.0545 588.619 52.7646 582.942 52.4333C576.768 52.0605 570.594 52.1019 564.42 52.3919C539.433 53.5929 514.736 58.8114 489.667 58.7286C482.539 58.7286 475.412 58.0659 468.285 58.0245C462.235 57.9831 455.315 58.1074 449.638 60.4681C446.074 61.9591 442.594 65.4381 444.583 69.5384C446.447 73.3901 451.71 74.7154 455.522 75.2539C456.268 75.5024 456.599 74.3013 455.812 74.177Z" fill="#E8E8E8"/>
<path d="M55.0701 130.711C89.629 115.718 127.503 129.717 159.368 144.751C175.612 152.413 191.607 160.614 208.555 166.66C225.171 172.583 242.451 176.683 259.979 179.044C295.159 183.807 331.168 181.695 365.768 173.95C402.026 165.832 436.378 151.088 472.346 141.852C509.764 132.243 548.881 130.172 587.045 136.343C591.686 137.089 596.285 137.959 600.885 138.953C601.672 139.118 602.004 137.917 601.216 137.752C564.171 129.882 525.676 129.51 488.548 136.882C451.42 144.254 416.488 159.33 380.064 169.145C344.718 178.671 307.797 182.523 271.291 179.085C253.141 177.387 235.157 173.867 217.754 168.4C199.77 162.767 182.905 154.567 165.957 146.449C135.335 131.746 100.776 116.836 66.1339 125.575C62.1145 126.569 58.2608 127.936 54.4485 129.592C53.7441 129.965 54.3657 131.042 55.0701 130.711Z" fill="#E8E8E8"/>
<path d="M196.869 115.883C237.354 138.455 285.546 140.153 330.464 133.857C381.308 126.734 430.287 109.96 481.214 103.416C509.557 99.7716 538.48 99.316 566.533 105.528C567.321 105.694 567.652 104.493 566.865 104.327C517.264 93.3934 466.379 103.043 417.814 114.35C369.954 125.491 321.555 138.496 271.954 135.307C246.056 133.65 220.282 127.479 197.491 114.806C196.828 114.392 196.206 115.468 196.869 115.883Z" fill="#E8E8E8"/>
<path d="M75.996 38.5584C110.804 30.2751 147.932 33.547 180.75 47.8358C196.869 54.8352 211.994 63.9468 227.823 71.5261C243.776 79.1468 260.434 84.4067 278.004 86.7674C298.101 89.4595 318.447 89.0039 338.585 87.6786C339.373 87.6372 339.373 86.3947 338.585 86.4361C320.394 87.6372 302.038 88.1342 283.888 86.229C265.49 84.2824 247.92 79.4781 231.138 71.7332C215.185 64.3196 200.101 55.2079 184.065 48.0014C168.319 40.7949 151.619 36.032 134.423 34.0026C114.823 31.6418 94.8501 32.8015 75.6645 37.3573C74.8772 37.523 75.2087 38.7241 75.996 38.5584Z" fill="#E8E8E8"/>
<path d="M429.044 289.585C425.397 288.84 419.43 286.976 419.14 282.462C418.974 279.687 421.295 277.657 423.74 276.912C426.682 275.959 429.79 276.829 432.649 277.657C437.87 279.19 443.132 280.432 448.602 280.639C453.699 280.846 458.754 280.101 463.685 278.776C468.989 277.367 474.169 275.462 479.432 273.971C484.984 272.397 490.661 271.569 496.463 271.486C507.526 271.321 518.466 273.309 529.488 273.764C534.999 273.971 540.428 273.681 545.856 272.853C551.74 271.942 557.749 270.575 563.757 271.279C568.067 271.776 574.987 274.675 573.578 280.225C572.335 285.071 565.456 287.804 561.229 289.171C540.013 296.046 518.134 284.615 496.628 287.639C484.238 289.378 472.553 294.597 460.039 295.591C454.321 296.046 448.436 295.674 443.008 293.644C438.036 291.739 433.56 287.597 427.883 288.591C427.096 288.716 427.428 289.917 428.215 289.792C431.613 289.213 434.596 290.828 437.456 292.402C439.776 293.644 442.097 294.804 444.624 295.549C449.804 297.123 455.357 297.33 460.743 296.833C472.595 295.715 483.741 291.035 495.468 289.13C508.397 287.059 521.118 290.041 533.881 291.739C544.281 293.106 555.428 293.437 565.207 289.088C568.937 287.432 573.909 284.781 574.862 280.391C575.732 276.456 572.708 273.309 569.434 271.693C564.586 269.333 558.743 269.788 553.605 270.492C547.348 271.321 541.256 272.646 534.917 272.729C522.568 272.936 510.386 270.409 498.079 270.368C492.194 270.368 486.352 271.031 480.633 272.522C474.956 274.013 469.445 276.083 463.81 277.616C456.848 279.48 449.845 280.059 442.718 278.941C439.154 278.361 435.798 277.367 432.359 276.373C429.79 275.628 427.013 275.007 424.32 275.586C420.3 276.456 416.654 280.267 418.436 284.532C420.052 288.426 424.983 290.124 428.795 290.911C429.458 290.952 429.79 289.751 429.044 289.585Z" fill="#E8E8E8"/>
<path d="M243.114 453.14C258.611 449.413 273.777 444.318 288.405 437.982C295.988 434.668 303.405 430.899 311.486 428.911C319.234 426.965 327.273 426.385 335.271 426.592C344.511 426.799 353.669 428.042 362.785 429.491C363.573 429.616 363.904 428.414 363.117 428.29C347.578 425.847 331.583 423.859 315.961 426.675C307.922 428.125 300.546 431.189 293.17 434.544C285.421 438.065 277.59 441.254 269.551 444.07C260.766 447.135 251.857 449.785 242.782 451.939C241.995 452.105 242.326 453.306 243.114 453.14Z" fill="#161616"/>
<path d="M341.03 427.047C347.992 426.882 354.87 425.888 361.583 423.941C368.42 421.994 375.175 419.261 382.426 419.965C386.114 420.296 389.719 421.332 393.283 422.243C397.012 423.196 400.7 424.148 404.43 425.101C411.598 426.923 418.726 428.745 425.894 430.568C426.682 430.775 427.013 429.574 426.226 429.367C418.808 427.461 411.391 425.598 403.974 423.693C397.178 421.953 390.217 419.634 383.255 418.805C376.418 418.018 369.954 420.131 363.489 422.119C356.155 424.355 348.696 425.639 341.072 425.846C340.243 425.805 340.243 427.047 341.03 427.047Z" fill="#161616"/>
<path d="M413.587 433.467C429.872 429.864 446.986 426.758 463.519 430.568C471.724 432.473 479.431 436.118 487.097 439.472C495.136 443.034 503.217 446.555 511.255 450.117C512.001 450.448 512.623 449.371 511.877 449.04C499.28 443.49 486.807 437.484 473.962 432.556C461.53 427.793 448.602 426.84 435.425 428.331C427.966 429.201 420.549 430.651 413.214 432.307C412.468 432.432 412.8 433.633 413.587 433.467Z" fill="#161616"/>
<path d="M266.36 467.51C270.628 466.765 274.937 466.019 279.205 465.274C283.473 464.528 287.783 463.576 292.093 463.12C296.071 462.706 300.131 463.41 304.068 463.783C308.419 464.238 312.811 464.653 317.162 465.108C317.95 465.191 317.95 463.949 317.162 463.866C312.811 463.41 308.419 462.996 304.068 462.54C299.841 462.126 295.573 461.422 291.305 461.961C282.852 462.996 274.44 464.86 266.028 466.309C265.241 466.475 265.572 467.676 266.36 467.51Z" fill="#161616"/>
<path d="M151.91 280.722C154.748 280.722 157.048 278.423 157.048 275.587C157.048 272.75 154.748 270.451 151.91 270.451C149.072 270.451 146.771 272.75 146.771 275.587C146.771 278.423 149.072 280.722 151.91 280.722Z" fill="#EC615B"/>
<path d="M165.792 291.988C167.279 291.988 168.485 290.782 168.485 289.296C168.485 287.809 167.279 286.604 165.792 286.604C164.304 286.604 163.098 287.809 163.098 289.296C163.098 290.782 164.304 291.988 165.792 291.988Z" fill="#EC615B"/>
<path d="M454.776 29.0329C458.278 29.0329 461.116 26.1958 461.116 22.6961C461.116 19.1964 458.278 16.3594 454.776 16.3594C451.275 16.3594 448.437 19.1964 448.437 22.6961C448.437 26.1958 451.275 29.0329 454.776 29.0329Z" fill="#EC615B"/>
<path d="M469.528 36.1987C471.519 36.1987 473.133 34.5855 473.133 32.5954C473.133 30.6054 471.519 28.9922 469.528 28.9922C467.537 28.9922 465.923 30.6054 465.923 32.5954C465.923 34.5855 467.537 36.1987 469.528 36.1987Z" fill="#EC615B"/>
<path d="M467.125 34.7061C470.444 34.7061 473.134 32.0174 473.134 28.7007C473.134 25.384 470.444 22.6953 467.125 22.6953C463.807 22.6953 461.117 25.384 461.117 28.7007C461.117 32.0174 463.807 34.7061 467.125 34.7061Z" fill="#5222D0"/>
<path d="M452.746 343.759C457.232 343.759 460.868 340.124 460.868 335.641C460.868 331.158 457.232 327.523 452.746 327.523C448.261 327.523 444.625 331.158 444.625 335.641C444.625 340.124 448.261 343.759 452.746 343.759Z" fill="#5222D0"/>
<path d="M157.877 33.0495C160.738 33.0495 163.057 30.7316 163.057 27.8724C163.057 25.0132 160.738 22.6953 157.877 22.6953C155.016 22.6953 152.697 25.0132 152.697 27.8724C152.697 30.7316 155.016 33.0495 157.877 33.0495Z" fill="#5222D0"/>
<path d="M239.84 387.08C243.342 387.08 246.18 384.243 246.18 380.743C246.18 377.243 243.342 374.406 239.84 374.406C236.339 374.406 233.5 377.243 233.5 380.743C233.5 384.243 236.339 387.08 239.84 387.08Z" fill="#5222D0"/>
<path d="M285.588 267.883C284.717 267.511 285.712 265.978 286.168 265.771C286.706 265.523 287.784 265.854 288.364 266.02C289.275 266.31 290.063 266.807 290.974 267.055C291.969 267.345 293.171 267.428 294.124 266.972C297.439 265.274 293.502 259.559 298.35 259.559C301.002 259.559 303.24 263.493 305.436 260.553C306.223 259.517 306.555 258.192 306.969 256.949C307.301 255.873 307.591 254.754 308.337 253.885C309.207 252.891 311.859 251.897 312.149 254.05C312.232 254.837 313.516 254.837 313.392 254.05C313.185 252.559 312.108 251.565 310.574 251.482C308.751 251.358 307.425 252.725 306.679 254.216C306.14 255.251 305.892 256.411 305.519 257.529C305.27 258.316 304.939 259.683 304.234 260.18C303.489 260.677 302.908 260.139 302.287 259.766C300.671 258.689 298.723 257.861 296.776 258.565C294.994 259.227 294.289 260.76 294.372 262.582C294.372 263.121 294.538 263.783 294.497 264.322C294.207 266.227 292.922 266.31 291.596 266.02C290.27 265.73 289.151 264.901 287.784 264.653C286.333 264.363 284.883 264.736 284.22 266.185C283.681 267.428 284.013 268.67 285.256 269.167C286.002 269.374 286.333 268.173 285.588 267.883Z" fill="#5222D0"/>
<path d="M306.969 269.87C306.347 268.918 306.347 267.717 307.01 266.764C307.963 265.397 309.289 265.604 310.74 265.811C311.817 265.977 313.143 266.184 313.93 265.232C314.469 264.61 314.386 263.865 314.593 263.161C314.884 262.125 315.547 261.214 316.417 260.593C318.24 259.268 320.809 259.061 322.632 260.469C323.088 260.8 323.627 260.593 323.71 260.013C324.207 255.996 328.185 253.014 332.163 253.718C332.95 253.842 333.282 252.641 332.494 252.517C327.646 251.688 323.047 255.167 322.467 260.013C322.84 259.847 323.171 259.723 323.544 259.558C321.845 258.232 319.69 257.901 317.66 258.605C315.339 259.392 314.262 260.924 313.392 263.078C312.977 264.155 312.48 264.817 311.278 264.652C310.615 264.569 309.994 264.403 309.331 264.362C308.378 264.32 307.549 264.569 306.803 265.19C305.229 266.516 304.814 268.794 305.933 270.533C306.347 271.196 307.425 270.574 306.969 269.87Z" fill="#5222D0"/>
<path d="M327.937 43.198C327.232 42.5354 327.439 42.1212 328.517 41.9141C328.973 41.2929 329.47 41.1686 330.009 41.5828C330.754 41.7485 331.252 42.4111 331.79 42.9081C332.453 43.488 333.034 44.1506 333.779 44.6062C334.815 45.186 336.1 45.4345 337.177 44.8961C338.503 44.2335 338.545 42.9081 339 41.6656C340.244 38.3523 344.47 38.021 346.459 40.8373C346.708 41.1686 347.329 41.2929 347.537 40.8373C348.324 38.9735 349.318 36.8613 351.1 35.743C352.882 34.6248 355.866 34.749 356.653 37.0684C356.902 37.8139 358.103 37.4825 357.855 36.737C357.067 34.5005 354.788 33.5065 352.509 33.8793C349.36 34.4177 347.619 37.5654 346.459 40.216C346.832 40.216 347.164 40.216 347.537 40.216C346.086 38.1452 343.6 37.027 341.114 37.9381C340.078 38.3109 339.125 39.0564 338.503 40.009C338.172 40.506 337.965 41.0444 337.757 41.6242C337.633 41.997 337.633 42.4525 337.426 42.7839C336.887 43.695 335.395 44.0678 334.442 43.5294C332.412 42.4111 330.423 38.8493 327.605 40.2989C326.031 41.0858 325.823 43.3223 327.315 44.2749C328.02 44.689 328.641 43.6122 327.937 43.198Z" fill="#EC615B"/>
<path d="M354.539 42.8667C354.249 38.725 359.553 40.0918 361.666 41.1272C362.744 41.6656 364.07 42.6596 365.23 41.7485C365.603 41.4585 365.769 41.0444 365.934 40.6302C366.556 39.2635 366.97 38.2695 368.628 37.7725C371.197 37.027 373.683 38.6422 375.755 39.9675C376.418 40.3817 377.04 39.3049 376.377 38.8907C374.18 37.524 371.694 35.9915 369.001 36.4471C368.131 36.5714 367.26 36.9027 366.556 37.4411C365.479 38.228 365.271 39.5948 364.194 40.2575C363.158 40.8787 362.744 40.2575 361.708 39.7605C361.169 39.512 360.63 39.2635 360.05 39.0564C358.973 38.6836 357.813 38.518 356.694 38.7665C354.746 39.222 353.172 40.7959 353.296 42.8667C353.337 43.6536 354.581 43.6536 354.539 42.8667Z" fill="#EC615B"/>
<path d="M474.46 214.415C471.725 208.409 482.084 205.758 482.789 212.054C483.037 214.166 481.877 216.403 479.722 216.982C477.319 217.604 474.75 215.988 474.087 213.669C473.88 212.882 472.678 213.213 472.885 214C473.714 216.982 476.987 218.97 480.054 218.183C483.079 217.397 484.57 214.042 483.866 211.143C483.12 208.078 479.929 206.587 476.987 207.374C473.548 208.285 471.932 211.888 473.382 215.119C473.714 215.781 474.791 215.119 474.46 214.415Z" fill="#EC615B"/>
<path d="M482.167 219.176C479.929 218.969 479.101 215.987 480.634 214.496C481.918 213.212 484.114 213.295 485.482 214.372C486.891 215.49 488.258 218.762 486.684 220.336C484.612 222.407 482.084 219.052 481.09 217.561C480.634 216.898 479.556 217.52 480.012 218.182C481.462 220.419 484.777 223.939 487.554 221.206C489.75 219.052 488.175 214.703 486.021 213.171C483.824 211.597 480.219 212.136 478.976 214.703C477.733 217.188 479.556 220.17 482.208 220.419C482.954 220.502 482.954 219.259 482.167 219.176Z" fill="#EC615B"/>
<path d="M105.749 167.117C107.406 167.034 108.276 165.916 109.437 164.88C112.171 162.437 115.321 164.756 117.061 167.158C118.719 169.436 121.122 171.051 123.235 168.318C124.23 167.034 124.727 165.129 126.094 164.218C128.871 162.354 131.233 166.04 132.973 167.655C134.962 169.478 139.064 170.306 139.976 166.91C140.183 166.123 138.981 165.791 138.774 166.578C138.318 168.359 136.164 168.318 134.879 167.572C133.885 166.993 133.18 166.081 132.393 165.294C131.233 164.052 129.948 162.851 128.208 162.52C125.349 162.023 124.064 164.59 122.779 166.661C122.448 167.241 122.034 168.028 121.412 168.359C119.92 169.146 118.843 167.572 118.056 166.537C117.061 165.129 115.942 163.928 114.326 163.182C113 162.561 111.426 162.354 110.058 162.934C108.483 163.596 107.489 165.833 105.707 165.916C104.961 165.916 104.961 167.158 105.749 167.117Z" fill="#EC615B"/>
<path d="M134.713 158.584C136.454 160.655 139.561 163.43 142.296 161.152C142.959 160.572 143.332 159.743 144.037 159.164C145.073 158.377 146.44 158.211 147.642 158.584C150.252 159.288 151.786 161.773 153.153 163.885C153.402 164.258 154.023 164.341 154.23 163.885C156.012 159.992 160.777 159.039 164.507 160.53C165.253 160.82 165.584 159.619 164.838 159.329C160.653 157.631 155.142 158.874 153.153 163.223C153.526 163.223 153.857 163.223 154.23 163.223C152.366 160.323 150.004 157.01 146.109 157.134C144.741 157.176 143.498 157.755 142.586 158.749C141.509 159.992 140.597 160.986 138.816 160.448C137.448 160.033 136.454 158.75 135.542 157.673C135.086 157.093 134.216 157.963 134.713 158.584Z" fill="#EC615B"/>
<path d="M209.342 201.907C208.804 200.83 208.182 199.712 207.685 198.594C207.146 197.434 207.395 196.978 208.099 195.984C209.011 194.7 210.42 193.541 212.036 194.41C213.196 195.032 213.942 196.44 214.273 197.641C214.854 199.67 214.356 202.57 211.994 203.232C210.047 203.771 207.519 202.57 207.602 200.333C207.602 199.546 206.359 199.546 206.359 200.333C206.276 203.108 209.052 204.847 211.622 204.558C214.771 204.185 216.097 200.871 215.641 198.055C215.185 195.322 212.657 191.843 209.508 193.127C207.975 193.748 206.815 195.363 206.11 196.813C205.696 197.682 205.779 197.724 206.193 198.594C206.856 199.919 207.519 201.244 208.182 202.528C208.638 203.232 209.715 202.611 209.342 201.907Z" fill="#5222D0"/>
<path d="M213.942 210.024C212.367 208.16 209.674 204.515 211.994 202.196C213.652 200.539 216.635 201.161 218.003 202.817C219.412 204.515 219.702 207.829 217.506 209.071C215.641 210.148 212.947 209.113 212.616 206.959C212.492 206.172 211.29 206.503 211.414 207.29C211.912 210.107 215.351 211.432 217.837 210.314C220.862 208.906 220.986 204.723 219.204 202.279C217.506 199.918 213.776 199.09 211.456 201.036C208.099 203.811 211 208.367 213.113 210.852C213.569 211.515 214.439 210.645 213.942 210.024Z" fill="#EC615B"/>
<path d="M458.962 126.196C459.003 122.552 464.017 123.628 466.172 123.877C468.037 124.084 469.736 123.836 471.393 122.924C473.216 121.972 474.708 120.481 476.49 119.445C477.65 118.741 479.059 118.12 480.427 118.12C481.877 118.161 482.788 119.031 484.073 119.57C487.057 120.771 488.963 117.996 490.827 116.173C494.515 112.57 499.778 114.061 504.087 115.552C504.833 115.801 505.165 114.6 504.419 114.351C500.565 113.026 495.676 111.576 491.863 113.771C490.04 114.807 488.963 116.712 487.305 117.913C484.943 119.611 482.954 116.919 480.468 116.878C475.123 116.795 472.305 122.966 466.918 122.676C464.597 122.552 462.36 121.682 460.122 122.717C458.672 123.38 457.76 124.54 457.719 126.155C457.677 126.983 458.92 126.983 458.962 126.196Z" fill="#5222D0"/>
<path d="M489.957 124.789C492.609 121.02 497.582 119.197 502.057 120.481C504.005 121.061 505.828 122.635 507.983 122.511C509.764 122.386 510.718 120.937 511.919 119.819C513.867 118.038 516.394 116.588 519.129 116.671C520.787 116.712 522.071 117.334 523.356 118.41C523.77 118.783 524.102 119.114 524.682 119.28C525.511 119.487 526.257 119.114 527.002 118.783C528.287 118.203 529.613 117.706 530.98 117.334C533.798 116.629 536.657 116.505 539.517 116.878C540.304 116.961 540.304 115.718 539.517 115.635C536.782 115.263 534.047 115.346 531.353 115.967C530.152 116.257 528.95 116.629 527.79 117.085C526.878 117.458 526.422 117.706 525.386 117.706C524.268 117.706 524.35 117.541 523.605 116.961C520.082 114.269 515.359 115.511 512.168 118.038C511.298 118.7 510.593 119.611 509.764 120.274C507.775 121.848 506.201 120.854 504.17 119.943C502.43 119.156 500.607 118.783 498.701 118.866C494.764 119.032 491.2 120.978 488.963 124.167C488.424 124.83 489.502 125.451 489.957 124.789Z" fill="#5222D0"/>
<path d="M399.831 402.571C400.618 407.541 401.406 412.553 402.151 417.523C385.784 422.824 377.745 426.179 378.076 427.587C378.491 429.326 391.585 428.043 417.359 423.859C415.867 415.99 414.417 408.121 412.925 400.252C408.533 400.997 404.182 401.784 399.831 402.571Z" fill="black"/>
<path d="M364.609 236.158C364.319 241.791 363.905 249.826 363.532 259.559C363.159 269.871 362.952 275.256 362.993 281.882C362.993 284.74 363.117 296.378 364.609 311.371C365.852 324.003 367.8 342.889 374.72 366.124C377.455 375.318 381.681 387.66 388.27 401.742C391.295 402.198 394.858 402.446 398.919 402.28C406.544 401.908 412.718 400.044 416.986 398.305C415.743 394.246 414.003 388.489 412.179 381.572C409.735 372.212 402.69 344.007 399.955 306.111C398.588 287.059 398.091 263.286 400.494 235.951C388.56 235.993 376.585 236.075 364.609 236.158Z" fill="white"/>
<path opacity="0.09" d="M399.458 239.348C398.671 242.33 397.635 246.637 396.516 251.855C393.615 265.647 390.632 285.32 390.922 318.578C391.088 339.038 392.538 367.325 397.842 401.494C399.914 401.287 402.027 401.038 404.223 400.707C408.823 400.003 413.091 399.092 416.986 398.056C415.246 392.424 412.842 384.057 410.356 373.869C401.53 337.547 399.044 306.733 398.381 286.397C398.008 274.303 398.008 258.275 399.458 239.348Z" fill="#606060"/>
<path d="M399.582 237.234C395.438 279.148 398.008 321.683 407.165 362.809C409.776 374.489 412.884 386.003 416.53 397.392C416.779 398.138 417.98 397.807 417.732 397.061C404.969 357.011 398.588 315.015 398.919 272.977C399.002 261.049 399.665 249.079 400.825 237.193C400.908 236.447 399.665 236.447 399.582 237.234Z" fill="#161616"/>
<path d="M362.91 274.385C361.377 308.347 366.142 342.516 376.833 374.779C379.816 383.808 383.297 392.671 387.234 401.327C387.565 402.073 388.643 401.41 388.311 400.706C374.43 369.851 366.266 336.51 364.319 302.756C363.78 293.313 363.739 283.87 364.153 274.385C364.195 273.557 362.951 273.598 362.91 274.385Z" fill="#161616"/>
<path d="M387.731 401.701C389.14 403.275 392.372 402.902 394.278 402.944C397.179 402.985 400.121 402.695 402.98 402.281C406.088 401.826 409.196 401.163 412.262 400.417C413.795 400.045 416.986 399.962 417.773 398.264C418.105 397.56 417.027 396.897 416.696 397.643C416.323 398.512 414.251 398.678 413.464 398.844C412.303 399.134 411.185 399.382 410.024 399.672C407.828 400.169 405.674 400.625 403.477 400.956C401.198 401.329 398.919 401.577 396.64 401.66C394.9 401.743 389.927 402.281 388.643 400.832C388.063 400.21 387.192 401.122 387.731 401.701Z" fill="#161616"/>
<path d="M352.385 235.91C351.183 238.519 349.567 243.489 348.407 247.88C346.956 253.471 346.583 256.826 345.755 261.713C344.221 270.742 343.185 272.274 340.948 282.173C338.586 292.775 337.509 300.934 336.68 307.437C336.017 312.49 334.815 322.802 334.276 336.138C334.028 341.895 333.903 345.292 334.028 349.972C334.359 364.675 336.721 376.064 337.757 380.537C340.533 392.838 344.594 403.358 348.655 411.89C350.52 412.842 353.338 414.043 356.901 414.83C361.294 415.783 366.929 417.025 372.316 414.292C373.808 413.546 377.206 411.475 379.775 406.588C377.786 401.163 375.341 393.459 373.393 384.016C368.587 360.574 370.327 342.02 371.529 330.34C373.766 308.265 378.905 291.698 387.731 263.121C390.714 253.512 393.366 245.726 395.19 240.549C395.811 236.449 397.261 224.148 390.673 219.012C381.018 211.391 358.517 222.698 352.385 235.91Z" fill="white"/>
<path opacity="0.08" d="M389.347 257.943C386.653 262.209 382.924 268.546 379.236 276.539C374.678 286.397 367.965 303.709 364.36 338.209C362.371 357.053 361.045 383.436 364.111 415.285C365.396 415.41 370.866 415.865 375.548 412.096C377.951 410.15 379.194 407.913 379.816 406.505C377.786 400.914 375.175 392.713 373.186 382.566C367.302 352.995 370.99 329.221 373.725 312.655C375.962 298.822 380.313 279.729 389.347 257.943Z" fill="#606060"/>
<path d="M358.89 414.747C360.299 419.8 361.708 424.894 363.117 429.947C340.906 436.698 330.008 440.922 330.381 442.579C330.796 444.484 345.92 443.076 375.755 438.355C374.968 430.237 374.181 422.161 373.435 414.043C368.545 414.25 363.697 414.499 358.89 414.747Z" fill="black"/>
<path d="M351.929 236.407C347.537 247.506 345.299 259.269 342.937 270.948C340.451 283.166 338.047 295.384 336.307 307.726C333.075 330.588 332.08 353.988 336.514 376.768C338.876 389.027 342.854 400.955 348.697 411.972C349.07 412.676 350.147 412.055 349.774 411.351C327.605 369.23 334.318 319.944 343.351 275.255C345.962 262.292 348.282 249.08 353.172 236.738C353.421 235.992 352.219 235.661 351.929 236.407Z" fill="#161616"/>
<path d="M388.808 257.861C374.927 294.846 365.645 334.606 371.032 374.241C372.524 385.175 375.134 395.902 378.946 406.257C379.236 407.002 380.438 406.671 380.148 405.925C366.349 368.692 369.167 327.855 379.526 290.124C382.51 279.314 386.074 268.67 390.01 258.151C390.3 257.405 389.099 257.115 388.808 257.861Z" fill="#161616"/>
<path d="M348.821 411.931C354.664 415.162 361.376 416.528 368.006 415.659C373.435 414.913 379.733 412.428 380.272 406.174C380.355 405.387 379.112 405.387 379.029 406.174C378.449 412.677 370.576 414.416 365.23 414.665C359.719 414.913 354.291 413.546 349.484 410.854C348.738 410.481 348.116 411.558 348.821 411.931Z" fill="#161616"/>
<path d="M360.921 127.978C359.802 129.303 358.227 131.333 356.736 134.025C351.639 142.971 351.307 151.751 351.225 159.455C351.142 170.678 351.059 176.311 352.26 188.529C353.379 199.96 353.669 216.361 349.65 237.276C353.255 239.927 358.518 242.992 365.396 244.607C385.203 249.246 401.613 237.691 404.72 235.454C400.784 212.385 398.629 193.913 397.386 180.95C396.599 172.749 393.698 160.821 387.938 136.924C386.198 129.635 384.416 122.677 379.029 120.689C371.57 117.872 362.413 126.528 360.921 127.978Z" fill="#EC615B"/>
<path opacity="0.1" d="M378.822 121.268C379.485 123.96 380.438 128.019 381.391 133.03C382.634 139.491 384.292 149.265 385.452 163.802C386.653 178.795 388.021 206.917 388.435 243.281C391.253 242.453 394.651 241.21 398.256 239.222C400.659 237.897 402.731 236.489 404.472 235.163C404.182 231.974 403.643 227.129 402.773 221.289C401.654 213.958 400.535 208.864 399.996 206.337C398.67 199.794 397.179 190.019 397.013 176.435C395.314 169.228 394.029 163.43 393.159 159.578C390.756 148.644 390.051 144.627 388.228 138C386.405 131.332 384.499 126.031 383.297 122.841C381.805 122.262 380.314 121.765 378.822 121.268Z" fill="#606060"/>
<path d="M360.879 131.954C361.252 132.699 361.874 132.948 363.241 133.61C364.401 134.19 365.52 134.894 366.68 135.391C370.244 136.924 374.429 143.716 375.092 144.793C377.62 148.893 380.562 153.697 382.261 160.655C382.717 162.478 383.753 167.199 382.551 183.145C381.266 199.504 379.609 201.782 380.893 209.941C381.846 215.864 383.048 222.946 388.891 226.798C394.319 230.36 400.576 229.117 401.861 228.869C409.734 227.336 414.209 221.248 418.56 215.326C425.19 206.338 427.718 197.351 428.795 192.132C429.292 189.689 429.21 182.523 429.085 168.235C428.919 153.49 428.671 148.396 424.817 144.089C422.207 141.19 419.016 139.823 416.82 139.119C416.985 138.208 417.027 136.841 416.281 135.681C414.872 133.528 411.516 133.569 409.361 133.61C400.12 133.859 393.242 140.071 392.91 140.361C387.15 145.704 385.452 152.248 384.913 154.981C383.753 149.846 381.846 145.911 380.355 143.385C379.07 141.19 377.164 138.953 373.31 134.397C370.285 130.835 368.835 129.469 366.556 128.723C366.059 128.558 362.288 127.439 361.045 129.137C360.465 129.924 360.465 131.125 360.879 131.954Z" fill="white"/>
<path opacity="0.11" d="M360.589 130.422C360.838 129.966 363.614 131.002 363.904 131.126C368.006 132.7 371.653 135.972 376.335 143.551C378.739 147.444 381.764 152.952 384.333 160.118C386.156 158.254 387.689 156.721 388.891 155.562C388.891 155.562 393.325 151.296 400.493 147.154C401.198 146.74 402.068 146.243 402.69 146.616C403.974 147.32 402.607 150.757 402.98 153.946C403.27 156.349 404.679 159.662 410.024 163.348C410.148 164.052 410.19 165.046 409.61 165.709C408.449 166.993 405.466 165.957 403.933 165.419C401.446 164.549 396.64 162.271 390.963 155.603C390.424 157.757 389.72 160.822 389.181 164.59C388.684 167.862 387.316 178.755 389.595 192.754C390.507 198.304 392.206 205.717 395.687 214.166C397.22 214.829 399.167 215.45 401.488 215.823C406.336 216.568 410.356 215.616 412.676 214.87C411.309 215.533 409.444 216.651 407.828 218.598C405.88 220.959 405.839 222.739 404.223 224.935C403.145 226.426 401.198 228.289 397.593 229.615C396.474 229.49 394.775 229.201 392.91 228.372C387.233 225.846 384.664 220.503 383.504 218.018C381.971 214.663 379.609 207.871 381.847 184.885C383.131 171.756 384.54 167.655 382.385 160.159C380.728 154.402 377.869 149.639 376.874 148.024C375.092 145.125 371.902 139.948 366.1 135.185C363.365 132.865 360.34 130.96 360.589 130.422Z" fill="#606060"/>
<path d="M406.792 139.697C406.046 140.691 405.093 142.141 404.347 144.046C403.933 145.164 402.938 147.774 403.187 151.087C403.643 157.672 408.366 161.69 409.237 162.394C409.817 162.849 410.314 163.222 410.646 163.429C410.148 165.127 409.568 167.654 409.361 170.76C409.03 175.15 408.698 180.079 411.267 181.528C412.925 182.439 415.411 181.818 416.778 180.493C417.11 180.162 418.063 179.126 418.312 174.446C418.602 168.896 417.441 166.577 419.099 164.962C419.803 164.216 421.005 163.761 422.041 163.305C423.201 162.808 424.237 162.559 424.983 162.394C424.527 165.79 424.196 168.813 423.947 171.257C423.657 174.28 423.533 175.813 424.569 176.765C425.522 177.635 427.096 177.801 428.298 177.262C429.873 176.558 430.37 174.612 431.24 170.719C431.944 167.654 432.525 165.086 432.152 161.607C431.944 159.826 431.571 158.376 431.24 157.382C431.157 156.678 430.95 155.643 430.618 154.442C429.914 152.04 429.251 151.336 428.837 149.803C428.215 147.608 428.92 146.531 429.085 144.046C429.251 142.1 429.085 139.325 427.676 135.846C427.138 135.887 426.019 135.97 424.859 136.757C423.45 137.668 422.87 138.993 422.662 139.449C421.585 139.2 419.637 138.952 417.4 139.573C413.546 140.609 411.516 143.466 410.977 144.336C412.054 141.975 411.143 139.656 409.693 139.076C408.449 138.538 406.958 139.615 406.792 139.697Z" fill="black"/>
<path d="M411.475 152.537C411.889 151.75 413.961 150.011 414.665 151.46C414.997 152.164 416.074 151.543 415.743 150.839C415.287 149.886 414.168 149.596 413.173 149.804C411.972 150.011 410.977 150.839 410.397 151.916C410.024 152.62 411.102 153.241 411.475 152.537Z" fill="white"/>
<path d="M423.616 149.349C423.864 148.811 424.113 148.189 424.527 147.775C424.942 147.361 426.185 146.905 426.226 147.858C426.268 148.645 427.511 148.645 427.469 147.858C427.386 146.657 426.35 145.87 425.149 146.036C423.781 146.284 423.077 147.527 422.538 148.686C422.207 149.432 423.284 150.094 423.616 149.349Z" fill="white"/>
<path d="M423.947 153.282C423.947 153.324 423.947 153.365 423.947 153.406C423.864 153.489 423.781 153.572 423.74 153.614C423.533 153.738 423.201 153.614 423.243 153.365C423.243 153.365 423.243 153.241 423.284 153.282L423.16 153.406C423.45 153.406 423.74 153.406 424.03 153.406C423.989 153.365 423.989 153.365 423.947 153.324C423.989 153.365 423.989 153.365 423.989 153.365C423.947 153.324 423.989 153.324 423.989 153.406C424.03 153.655 423.906 153.821 423.574 153.945C423.45 153.903 423.367 153.903 423.243 153.862C423.077 153.779 423.118 153.531 423.16 153.406C423.201 153.365 423.16 153.365 423.118 153.448C423.16 153.406 423.16 153.406 423.118 153.448C422.828 153.655 422.704 153.986 422.911 154.318C423.077 154.566 423.491 154.732 423.781 154.525C424.071 154.318 424.361 154.028 424.403 153.614C424.403 153.158 424.071 152.744 423.616 152.744C423.16 152.744 422.828 153.034 422.787 153.489C422.745 153.821 422.953 154.111 423.16 154.318C423.408 154.566 423.781 154.525 424.03 154.318C424.569 153.903 424.693 153.034 424.071 152.62C423.781 152.454 423.408 152.412 423.118 152.578C422.745 152.785 422.704 153.282 422.787 153.655C422.828 153.986 423.243 154.152 423.533 154.069C423.864 153.945 423.989 153.614 423.947 153.282Z" fill="white"/>
<path d="M417.317 154.566C416.115 155.27 414.499 154.939 413.712 153.779C413.256 153.117 412.179 153.738 412.635 154.401C413.836 156.099 416.115 156.679 417.98 155.643C418.643 155.229 418.021 154.152 417.317 154.566Z" fill="white"/>
<path d="M416.405 157.259C415.494 157.963 414.706 158.874 414.168 159.91C413.795 160.614 414.872 161.235 415.245 160.531C415.742 159.578 416.447 158.791 417.317 158.129C417.566 157.922 417.524 157.466 417.317 157.259C417.027 157.011 416.654 157.052 416.405 157.259Z" fill="white"/>
<path d="M426.475 152.703C427.303 151.75 427.925 150.673 428.339 149.472C428.588 148.727 427.386 148.395 427.138 149.141C426.806 150.135 426.268 151.046 425.605 151.833C425.107 152.454 425.977 153.324 426.475 152.703Z" fill="white"/>
<path d="M426.557 154.278C427.552 154.071 428.712 153.822 429.5 154.65C430.038 155.23 430.908 154.36 430.37 153.781C429.251 152.58 427.635 152.787 426.185 153.118C425.439 153.242 425.77 154.443 426.557 154.278Z" fill="white"/>
<path d="M360.382 131.001C362.288 128.019 366.805 129.8 369.084 131.291C371.819 133.03 373.891 135.639 375.755 138.249C379.526 143.509 382.883 149.224 384.126 155.644C384.291 156.431 385.493 156.099 385.327 155.312C383.877 147.65 379.402 140.278 374.346 134.397C371.404 131.001 363.075 124.581 359.305 130.421C358.89 131.042 359.968 131.705 360.382 131.001Z" fill="#161616"/>
<path d="M362.951 133.816C372.896 139.408 378.49 149.886 381.308 160.572C381.515 161.359 382.717 161.027 382.509 160.24C379.609 149.265 373.766 138.455 363.573 132.74C362.868 132.325 362.247 133.402 362.951 133.816Z" fill="#161616"/>
<path d="M385.327 155.106C386.363 147.775 391.046 141.645 397.468 138.125C400.783 136.303 404.471 135.184 408.242 134.646C410.024 134.397 412.096 134.149 413.836 134.812C415.742 135.516 417.566 138.539 415.162 139.906C414.458 140.279 415.079 141.355 415.784 140.983C418.436 139.492 417.773 135.681 415.452 134.232C411.847 131.954 405.88 133.569 402.192 134.812C393.076 137.752 385.534 145.124 384.167 154.857C384.001 155.561 385.203 155.893 385.327 155.106Z" fill="#161616"/>
<path d="M388.104 156.97C390.134 154.609 392.703 152.621 395.189 150.757C397.593 148.935 400.162 147.444 403.145 146.781C403.933 146.616 403.601 145.414 402.814 145.58C399.748 146.284 397.054 147.817 394.568 149.68C391.999 151.627 389.347 153.656 387.233 156.1C386.695 156.68 387.565 157.591 388.104 156.97Z" fill="#161616"/>
<path d="M403.311 146.904C404.182 144.916 405.3 143.011 406.668 141.313C406.916 141.023 407.206 140.526 407.538 140.319C407.828 139.781 408.201 139.739 408.74 140.236C409.403 140.236 409.693 140.485 409.693 141.065C410.149 141.934 410.19 143.425 410.356 144.419C410.521 145.206 411.723 144.875 411.557 144.088C411.226 142.514 410.812 136.882 407.828 138.414C406.668 138.994 405.798 140.443 405.052 141.437C403.933 142.97 403.021 144.585 402.234 146.283C401.902 146.987 402.98 147.65 403.311 146.904Z" fill="#161616"/>
<path d="M411.309 144.792C413.422 142.058 417.731 138.29 421.419 140.319C422.124 140.692 422.745 139.615 422.041 139.242C417.773 136.964 412.966 140.692 410.397 143.922C409.941 144.543 410.811 145.413 411.309 144.792Z" fill="#161616"/>
<path d="M422.621 140.112C423.201 139.201 425.895 135.929 427.055 136.799C427.677 137.255 427.801 138.87 427.967 139.615C428.215 140.775 428.298 141.935 428.34 143.136C428.381 143.923 429.624 143.923 429.583 143.136C429.541 141.479 429.334 139.864 428.92 138.249C428.671 137.338 428.464 135.598 427.387 135.308C426.392 135.06 425.025 136.012 424.279 136.551C423.16 137.338 422.29 138.332 421.585 139.491C421.13 140.154 422.207 140.775 422.621 140.112Z" fill="#161616"/>
<path d="M389.72 154.94C392.579 157.714 395.604 160.282 398.836 162.602C402.027 164.88 405.134 166.495 409.154 166.288C409.941 166.246 409.941 165.004 409.154 165.045C405.052 165.252 402.027 163.43 398.836 161.111C395.894 158.957 393.159 156.596 390.548 154.07C390.01 153.531 389.14 154.401 389.72 154.94Z" fill="#161616"/>
<path d="M381.349 159.206C385.866 179.252 374.098 201.161 383.835 220.337C385.659 223.94 388.435 227.212 392.247 228.827C395.977 230.401 400.286 230.277 404.14 229.035C412.676 226.301 418.187 218.39 422.414 210.935C425.107 206.255 427.345 201.244 428.671 195.984C429.334 193.375 429.748 190.641 429.872 187.949C429.997 184.843 429.582 181.737 429.707 178.63C429.748 177.844 428.505 177.844 428.464 178.63C428.298 183.683 428.961 188.488 427.966 193.499C427.096 197.972 425.48 202.321 423.45 206.38C419.679 214 414.582 222.574 406.75 226.591C402.689 228.662 397.676 229.449 393.325 227.833C389.057 226.26 386.239 222.491 384.416 218.473C380.52 209.734 380.976 199.794 382.012 190.517C383.172 179.997 384.996 169.353 382.634 158.833C382.344 158.129 381.142 158.419 381.349 159.206Z" fill="#161616"/>
<path d="M399.789 200.664C397.468 204.723 395.935 209.113 395.272 213.752C395.148 214.539 396.35 214.87 396.474 214.083C397.137 209.527 398.587 205.261 400.866 201.285C401.281 200.623 400.203 200.001 399.789 200.664Z" fill="#161616"/>
<path d="M400.576 201.118C406.709 200.58 413.173 199.42 419.306 200.083C420.093 200.166 420.093 198.923 419.306 198.84C413.173 198.136 406.709 199.337 400.576 199.876C399.789 199.959 399.789 201.201 400.576 201.118Z" fill="#161616"/>
<path d="M395.894 214.87C398.919 216.651 402.441 216.485 405.839 216.402C409.402 216.278 412.966 215.864 416.074 214C416.778 213.586 416.115 212.509 415.452 212.923C412.51 214.704 409.195 215.035 405.839 215.16C402.69 215.284 399.375 215.491 396.515 213.834C395.852 213.42 395.231 214.497 395.894 214.87Z" fill="#161616"/>
<path d="M418.726 199.794C417.939 204.35 416.737 208.74 415.121 213.047C414.831 213.793 416.033 214.124 416.323 213.378C417.98 209.071 419.182 204.639 419.928 200.125C420.052 199.338 418.85 199.007 418.726 199.794Z" fill="#161616"/>
<path d="M399.458 202.817C401.488 207.29 407.248 208.408 411.682 208.449C412.469 208.449 412.469 207.207 411.682 207.207C407.704 207.124 402.358 206.213 400.535 202.154C400.203 201.45 399.126 202.113 399.458 202.817Z" fill="#161616"/>
<path d="M408.408 206.834C408.284 207.87 408.16 208.905 408.035 209.899C407.952 210.686 409.195 210.686 409.278 209.899C409.403 208.864 409.527 207.828 409.651 206.834C409.734 206.047 408.491 206.047 408.408 206.834Z" fill="#161616"/>
<path d="M410.77 206.834C410.646 207.87 410.521 208.905 410.439 209.941C410.356 210.727 411.599 210.727 411.682 209.941C411.806 208.905 411.93 207.87 412.013 206.834C412.096 206.047 410.853 206.047 410.77 206.834Z" fill="#161616"/>
<path d="M411.848 208.574C414.79 207.911 417.234 206.089 418.768 203.521C419.182 202.817 418.105 202.195 417.69 202.9C416.281 205.219 414.127 206.751 411.516 207.373C410.729 207.58 411.06 208.781 411.848 208.574Z" fill="#161616"/>
<path d="M402.772 144.669C401.529 151.999 402.897 160.738 410.397 164.093C411.101 164.424 411.764 163.348 411.018 163.016C404.016 159.869 402.814 151.792 403.974 145C404.098 144.213 402.897 143.882 402.772 144.669Z" fill="#161616"/>
<path d="M428.257 142.679C428.34 145.04 428.298 147.442 428.63 149.762C428.961 152.288 431.24 155.104 430.039 157.631C429.707 158.335 430.785 158.997 431.116 158.252C432.193 155.974 431.24 154.069 430.453 151.832C429.417 148.975 429.666 145.661 429.541 142.638C429.459 141.851 428.215 141.851 428.257 142.679Z" fill="#161616"/>
<path d="M413.795 163.224C415.618 162.271 417.69 163.265 418.104 165.253C418.146 165.46 418.436 165.377 418.395 165.17C417.897 162.975 415.618 161.898 413.629 162.934C413.463 163.058 413.629 163.348 413.795 163.224Z" fill="white"/>
<path d="M416.944 165.335C417.234 165.666 417.442 166.039 417.566 166.453C417.649 166.66 417.939 166.577 417.856 166.37C417.69 165.914 417.442 165.5 417.152 165.127C417.027 164.962 416.779 165.21 416.944 165.335Z" fill="white"/>
<path d="M425.273 162.436C425.646 160.738 426.723 159.33 428.298 158.543C428.464 158.46 428.339 158.17 428.132 158.294C426.475 159.081 425.356 160.572 424.983 162.353C424.942 162.56 425.232 162.643 425.273 162.436Z" fill="white"/>
<path d="M352.302 74.6339C349.443 76.0835 347.039 78.817 345.962 80.0181C343.31 83.0415 341.943 85.8578 340.451 89.0055C339.208 91.5733 337.757 95.218 336.597 99.7738C338.213 100.064 339.829 100.312 341.445 100.602C341.362 102.176 341.362 104.495 341.984 107.229C342.564 109.714 343.517 113.69 346.832 116.465C351.39 120.358 357.44 119.405 358.559 119.24C358.642 121.186 359.056 123.961 360.631 126.819C361.045 127.523 361.46 128.186 361.874 128.765C364.153 128.103 367.675 126.736 371.115 123.92C379.899 116.837 381.101 106.276 381.474 103.211C382.013 98.4899 383.049 89.5853 377.206 82.2132C371.115 74.5925 359.554 70.9892 352.302 74.6339Z" fill="white"/>
<path d="M343.807 83.2477C344.967 81.5082 347.205 78.9404 349.733 77.1594C353.793 74.3017 355.617 75.5028 357.689 72.9764C359.18 71.154 360.133 68.172 359.015 66.7639C357.233 64.5273 350.893 67.2194 350.064 67.5922C348.241 68.3791 342.232 70.9055 339.829 77.2837C337.84 82.6264 339.166 88.4662 340.078 88.5904C340.326 88.6319 340.492 88.2177 341.818 86.1883C342.44 85.1529 343.144 84.2003 343.807 83.2477Z" fill="#5222D0"/>
<path d="M352.841 70.7814C352.509 71.8582 352.012 74.0119 353.67 78.2364C356.612 85.8157 363.49 92.608 366.93 91.3655C367.675 91.0756 368.463 90.3301 369.954 90.2472C370.327 90.2472 371.819 90.1644 372.979 91.0756C374.803 92.5252 374.886 95.6728 373.684 97.7022C373.477 98.075 372.358 99.7731 370.659 99.8973C369.167 100.022 368.67 98.8619 367.468 98.7791C364.526 98.6134 361.998 105.074 361.667 105.944C361.004 107.601 359.388 111.908 360.548 117.417C360.797 118.618 361.377 121.144 363.159 123.753C367.012 129.345 373.477 130.711 375.88 131.208C378.242 131.705 387.234 133.569 394.237 127.771C395.356 126.86 399.044 123.712 400.038 118.369C401.737 109.34 394.154 102.589 393.698 102.217C393.367 97.5366 392.248 90.0816 388.311 81.9225C385.825 76.7454 383.505 71.9825 378.242 68.3792C371.322 63.6992 361.253 62.3738 355.99 66.4327C355.451 66.9297 353.67 68.3378 352.841 70.7814Z" fill="#5222D0"/>
<path d="M344.968 115.221C344.346 115.842 342.523 117.747 342.191 120.729C341.736 124.871 344.512 127.729 345.092 128.308C348.117 131.415 353.172 132.657 356.819 130.793C357.109 130.669 360.3 128.971 360.424 126.527C360.465 125.451 359.885 124.912 359.056 122.51C358.518 120.936 358.186 119.652 357.938 118.783C356.819 119.155 354.913 119.652 352.551 119.321C348.324 118.783 345.714 116.049 344.968 115.221Z" fill="#5222D0"/>
<path opacity="0.12" d="M353.255 74.4258C353.296 75.7097 353.462 77.6149 354.332 79.6443C354.912 81.011 355.493 81.8394 355.948 82.502C357.689 85.1527 358.269 87.6377 359.18 90.4126C360.631 94.72 360.382 98.3232 360.092 102.796C359.843 106.524 359.015 112.198 356.321 118.783C357.44 119.114 359.056 119.777 360.797 120.937C363.987 123.09 365.437 125.658 366.349 126.859C368.214 129.303 372.358 131.871 382.344 131.705C381.35 130.711 379.941 129.22 378.407 127.398C374.802 123.173 371.653 119.487 369.788 115.014C368.711 112.446 367.054 107.186 368.338 99.5657C369.498 100.146 370.866 100.104 371.943 99.4C373.062 98.6545 373.766 97.1635 373.393 95.7968C372.938 94.223 371.032 93.1461 369.084 93.6431C368.67 92.6077 368.007 91.1167 366.929 89.5015C365.23 86.975 363.449 85.4012 362.786 84.8214C360.672 82.999 357.606 79.8928 353.255 74.4258Z" fill="#606060"/>
<path opacity="0.14" d="M337.053 99.0284C337.094 98.3657 339.207 97.8273 340.989 97.9515C342.564 98.0758 344.429 98.7799 344.387 99.4011C344.346 99.981 342.605 100.437 341.321 100.478C339.332 100.561 337.053 99.691 337.053 99.0284Z" fill="#606060"/>
<path d="M342.191 83.6204C339.829 88.7974 337.716 94.0574 335.893 99.4415C335.768 99.7729 336.017 100.104 336.307 100.187C337.923 100.808 339.539 101.098 341.238 101.057C342.025 101.057 342.025 99.8143 341.238 99.8143C339.622 99.8143 338.13 99.5244 336.639 98.9859C336.763 99.2344 336.929 99.4829 337.053 99.7314C338.835 94.4301 340.865 89.253 343.227 84.2002C343.6 83.5375 342.523 82.8749 342.191 83.6204Z" fill="#161616"/>
<path d="M341.072 101.305C341.404 106.648 341.901 112.57 345.879 116.588C349.691 120.481 355.202 120.15 360.216 119.57C361.004 119.487 361.004 118.244 360.216 118.327C355.575 118.866 350.313 119.321 346.749 115.718C343.02 111.949 342.647 106.316 342.315 101.305C342.274 100.518 341.031 100.518 341.072 101.305Z" fill="#161616"/>
<path d="M357.772 119.695C358.31 122.595 359.305 125.369 360.714 127.937C361.087 128.641 362.164 128.02 361.791 127.316C360.424 124.79 359.512 122.18 358.973 119.364C358.849 118.577 357.647 118.908 357.772 119.695Z" fill="#161616"/>
<path d="M341.901 107.643C343.932 109.424 346.957 108.595 347.744 105.986C347.993 105.199 346.791 104.909 346.542 105.655C346.045 107.311 344.097 107.933 342.813 106.732C342.191 106.235 341.321 107.104 341.901 107.643Z" fill="#161616"/>
<path d="M345.713 105.944C346.376 106.109 346.874 106.482 347.288 106.979C347.495 107.228 347.951 107.186 348.158 106.979C348.407 106.731 348.365 106.358 348.158 106.109C347.62 105.447 346.874 104.95 346.045 104.743C345.299 104.536 344.968 105.737 345.713 105.944Z" fill="#161616"/>
<path d="M347.578 90.4541C347.91 88.7146 350.064 89.0459 351.225 89.6672C352.219 90.2056 352.924 91.0754 353.338 92.1108C353.628 92.8563 354.83 92.5249 354.54 91.7794C353.877 89.9985 352.509 88.5904 350.603 88.0934C348.863 87.6378 346.791 88.1762 346.418 90.1228C346.252 90.9097 347.454 91.241 347.578 90.4541Z" fill="#161616"/>
<path d="M347.537 83.1229C349.401 80.0166 353.048 82.4188 353.794 85.0281C354.001 85.815 355.203 85.4836 354.996 84.6967C354.457 82.7916 353.131 81.0106 351.1 80.5136C349.277 80.0995 347.412 80.8864 346.459 82.4602C346.045 83.2057 347.122 83.827 347.537 83.1229Z" fill="#161616"/>
<path d="M348.78 97.4945C349.567 97.4945 349.567 96.252 348.78 96.252C347.993 96.252 347.951 97.4945 348.78 97.4945Z" fill="#161616"/>
<path d="M351.142 95.6312C351.183 95.6312 351.266 95.6312 351.307 95.6312C351.639 95.6312 351.929 95.3413 351.929 95.0099C351.929 94.6786 351.639 94.3887 351.307 94.3887C351.266 94.3887 351.183 94.3887 351.142 94.3887C350.81 94.3887 350.52 94.6786 350.52 95.0099C350.52 95.3827 350.81 95.6312 351.142 95.6312Z" fill="#161616"/>
<path d="M351.183 97.7445C351.183 97.7859 351.183 97.8273 351.183 97.8687C351.183 98.6557 352.426 98.6557 352.426 97.8687C352.426 97.8273 352.426 97.7859 352.426 97.7445C352.426 96.9576 351.183 96.9576 351.183 97.7445C351.183 97.7859 351.183 97.8273 351.183 97.8687C351.183 98.6557 352.426 98.6557 352.426 97.8687C352.426 97.8273 352.426 97.7859 352.426 97.7445C352.426 96.9576 351.183 96.9576 351.183 97.7445Z" fill="#161616"/>
<path d="M369.25 91.4076C370.369 89.7923 372.275 90.8277 372.938 92.1531C373.477 93.1885 373.477 94.431 373.435 95.5492C373.269 98.3656 370.907 100.354 368.173 98.6141C367.51 98.1585 366.888 99.2353 367.551 99.6909C369.167 100.768 371.239 100.892 372.855 99.6495C374.513 98.3656 374.803 96.2533 374.678 94.2653C374.554 92.3602 373.808 90.2479 371.819 89.5438C370.41 89.0468 369.001 89.5852 368.173 90.7863C367.758 91.4076 368.836 92.0288 369.25 91.4076Z" fill="#161616"/>
<path d="M257.783 67.7572C256.913 67.7572 256.042 67.7987 255.214 67.7987C253.805 70.5322 253.017 73.0172 252.562 74.8395C251.236 80.1822 251.567 84.6138 251.816 86.7675C251.981 88.2171 252.23 89.4181 252.437 90.2465C253.183 90.2465 253.929 90.2465 254.675 90.2465C254.965 91.2405 255.255 92.2345 255.545 93.2285C262.548 93.1871 268.308 93.1871 272.327 93.2285C296.693 93.4356 313.682 94.3882 317.618 94.5952C322.55 94.8852 326.569 95.1751 329.055 95.3407C329.138 93.8083 329.552 93.2699 329.925 93.1042C330.588 92.8143 331.169 93.5184 332.039 93.3527C332.95 93.1871 333.53 92.2345 333.903 91.3647C334.649 91.7375 336.017 92.2345 337.633 91.986C338.006 91.9446 338.337 91.8203 338.627 91.7375C339.332 90.3293 340.036 88.9212 340.741 87.513C339.746 87.1817 338.337 86.8917 336.638 86.8917C335.685 86.8917 334.856 87.016 334.152 87.1402C334.069 86.9332 333.406 85.0694 331.666 84.6552C331.127 84.531 330.671 84.5724 330.298 84.6552C330.05 84.1996 329.801 83.7441 329.552 83.2885C328.558 83.1228 327.025 82.8743 325.202 82.543C310.408 79.8509 300.09 76.579 292.217 74.2182C284.676 71.9403 273.695 68.8341 259.606 65.3965C259.026 66.1834 258.404 66.9703 257.783 67.7572Z" fill="white"/>
<path opacity="0.07" d="M251.94 83.8272C252.313 83.7444 252.727 84.6969 253.183 84.5727C253.929 84.407 253.763 81.7978 253.929 79.8512C254.053 77.9874 254.592 75.2954 256.415 72.0234C257.617 72.5204 259.44 73.3074 261.636 74.2599C269.551 77.6975 275.021 80.3482 276.678 81.0937C287.618 86.1879 299.635 88.4659 302.659 89.0457C309.538 90.371 319.069 91.5307 330.505 91.0337C330.008 92.4004 329.511 93.7672 329.014 95.1339C327.108 95.0925 324.331 95.0925 320.933 95.0097C306.347 94.7198 296.154 94.2642 290.311 94.0157C282.065 93.6844 270.255 93.353 255.338 93.3944C255.172 92.2762 255.006 91.1579 254.841 90.0397C253.888 90.2054 252.934 90.371 251.981 90.5367C251.36 85.3596 251.526 83.91 251.94 83.8272Z" fill="#606060"/>
<path d="M258.653 65.4386C253.473 73.432 252.023 83.372 254.675 92.5251C254.882 93.312 256.084 92.9807 255.877 92.1938C253.308 83.3306 254.717 73.8048 259.731 66.0599C260.186 65.3558 259.109 64.7345 258.653 65.4386Z" fill="#161616"/>
<path d="M259.73 66.639C283.06 72.5202 306.348 78.4014 329.677 84.2411C330.464 84.4482 330.796 83.2471 330.009 83.04C306.679 77.1589 283.391 71.2777 260.062 65.438C259.316 65.2309 258.985 66.432 259.73 66.639Z" fill="#161616"/>
<path d="M255.545 93.8928C279.869 93.6858 304.193 94.2656 328.475 95.5909C329.262 95.6323 329.262 94.3898 328.475 94.3484C304.193 93.0231 279.869 92.4433 255.545 92.6503C254.758 92.6503 254.758 93.8928 255.545 93.8928Z" fill="#161616"/>
<path d="M329.304 83.7864C330.961 87.4725 330.588 91.6556 328.309 95.0104C327.854 95.673 328.931 96.2943 329.387 95.6316C331.914 91.9041 332.246 87.2654 330.381 83.1652C330.05 82.4611 328.972 83.0824 329.304 83.7864Z" fill="#161616"/>
<path d="M330.547 85.4007C331.003 85.732 331.334 85.6078 331.873 85.732C332.909 86.0219 333.323 86.9745 333.531 87.9685C333.862 89.7909 333.406 93.6426 330.713 92.5658C329.967 92.2759 329.635 93.4769 330.381 93.7669C333.116 94.8437 334.898 91.9859 334.898 89.5838C334.898 88.2584 334.732 86.7674 333.986 85.6492C333.738 85.2764 333.406 84.9037 332.992 84.6966C332.453 84.4481 331.707 84.6138 331.252 84.2824C330.506 83.8683 329.884 84.9451 330.547 85.4007Z" fill="#161616"/>
<path d="M334.194 87.6785C336.307 87.5542 338.42 87.5957 340.492 87.8856C341.279 87.9684 341.279 86.7259 340.492 86.6431C338.379 86.3946 336.307 86.3117 334.194 86.436C333.406 86.5188 333.406 87.7613 334.194 87.6785Z" fill="#161616"/>
<path d="M334.028 92.2358C335.727 92.5257 337.426 92.6499 339.125 92.4843C339.912 92.4014 339.912 91.1589 339.125 91.2418C337.509 91.366 335.934 91.3246 334.359 91.0347C333.572 90.9104 333.24 92.0701 334.028 92.2358Z" fill="#161616"/>
<path d="M257.949 67.4266C253.929 65.1073 252.81 72.3552 252.272 74.6331C251.028 79.893 250.448 85.3186 251.982 90.5785C252.064 90.827 252.313 91.0341 252.562 91.0341C253.1 91.0341 253.68 91.0341 254.219 91.0341C255.006 91.0341 255.006 89.7916 254.219 89.7916C253.68 89.7916 253.1 89.7916 252.562 89.7916C252.769 89.9573 252.976 90.0815 253.142 90.2472C252.064 86.4369 252.064 82.5851 252.686 78.6919C252.976 76.9524 253.349 75.2129 253.805 73.5149C254.095 72.3966 255.007 67.1367 257.286 68.5034C258.031 68.9176 258.653 67.8408 257.949 67.4266Z" fill="#161616"/>
<path d="M302.742 76.3317C301.997 75.4205 300.753 75.5448 300.588 75.5448C299.22 75.6276 297.894 76.8701 296.444 79.8935C293.626 85.6504 293.502 91.4073 293.502 92.3185C293.46 96.2945 293.833 102.756 296.651 110.459C296.9 113.69 297.438 118.204 298.64 123.464C300.753 132.907 302.991 142.847 310.698 151.669C313.599 155.023 319.317 161.526 329.262 163.887C339.663 166.372 348.117 162.685 350.188 161.733C352.012 160.863 357.108 158.295 361.418 152.87C364.029 149.598 367.053 146.036 366.556 141.646C366.349 139.741 365.52 138.125 364.277 135.558C363.034 132.99 362.371 131.706 361.045 131.209C359.222 130.505 357.274 131.747 355.119 132.99C351.473 135.061 351.141 137.049 347.205 139.119C346.169 139.658 345.133 140.031 343.061 140.693C339.788 141.77 336.555 142.847 333.572 143.054C327.066 143.51 321.845 139.782 320.353 138.705C314.842 134.771 312.687 129.511 311.279 126.073C308.129 118.37 308.378 111.287 308.917 107.146C310.864 106.814 312.066 106.027 312.646 105.572C314.842 103.874 315.381 101.513 316.21 97.8684C316.748 95.5904 316.997 94.3894 316.417 93.9338C315.215 93.0226 311.527 96.0046 310.698 96.7087C310.864 93.8924 311.279 91.6144 311.693 89.9992C312.232 87.8455 312.522 86.7273 313.268 85.8575C314.718 84.1594 316.417 84.3251 316.997 82.7099C317.328 81.8401 317.287 80.639 316.583 79.9349C315.754 79.1066 313.972 79.148 312.439 80.3491C311.942 79.2723 310.947 78.6096 309.87 78.5682C308.792 78.5268 308.088 79.1894 307.881 79.3551C308.005 78.2369 307.508 77.2014 306.679 76.7873C305.56 76.2074 303.778 76.8701 303.115 78.5682C303.157 78.3611 303.447 77.2014 302.742 76.3317Z" fill="white"/>
<path opacity="0.12" d="M300.588 75.5449C299.594 77.2844 298.35 79.8523 297.522 83.207C295.698 90.4963 297.19 96.5846 297.853 99.5252C304.98 129.884 301.873 130.629 306.845 137.753C308.668 140.321 321.182 157.55 339.829 155.272C355.451 153.367 363.739 139.161 364.816 137.256C365.438 138.912 366.184 141.729 365.686 145.084C364.94 150.012 361.874 153.118 360.755 154.278C359.678 155.355 358.352 156.307 355.658 158.171C353.255 159.869 350.893 161.36 349.857 161.899C344.926 164.674 337.302 165.336 331.998 164.632C317.577 162.727 308.917 149.06 305.312 143.385C297.066 130.422 296.237 117.293 296.32 110.749C295.533 108.098 294.745 105.406 293.958 102.756C293.419 98.6554 293.378 95.2593 293.461 92.8985C293.668 86.9759 293.834 82.5443 296.859 78.7754C298.185 77.1188 299.635 76.1248 300.588 75.5449Z" fill="#606060"/>
<path d="M356.694 157.55C363.242 154.444 367.634 147.942 366.557 140.569C365.935 136.096 362.33 128.393 356.57 131.126C354.001 132.369 351.888 134.647 349.526 136.262C346.252 138.499 342.481 140.238 338.711 141.439C333.904 142.972 328.558 143.303 323.917 140.984C320.519 139.285 317.867 136.511 315.837 133.363C311.362 126.446 309.041 118.287 309.58 110.045C309.621 109.258 308.378 109.258 308.337 110.045C307.881 117.003 309.414 123.63 312.481 129.842C315.174 135.392 319.111 140.611 325.078 142.847C332.329 145.539 340.244 142.806 346.791 139.368C349.733 137.794 352.261 135.765 354.913 133.736C357.316 131.872 359.719 130.961 362.164 133.446C365.189 136.511 366.101 141.853 365.189 145.912C364.07 150.758 360.465 154.403 356.073 156.473C355.368 156.805 355.99 157.882 356.694 157.55Z" fill="#161616"/>
<path d="M309.497 110.582C308.958 108.304 310.574 107.725 312.066 106.648C312.936 106.027 313.599 105.157 314.221 104.287C315.795 102.009 317.039 99.3585 317.37 96.5836C317.536 95.2168 317.826 93.0632 315.961 92.9803C313.765 92.8975 312.853 95.6724 310.781 95.8795C309.994 95.9623 309.994 97.2048 310.781 97.122C312.356 96.9563 313.143 95.9623 314.345 95.0512C315.05 94.5127 315.837 93.8915 316.21 95.0926C316.417 95.7553 316.086 96.9978 315.92 97.6604C315.63 99.0686 315.008 100.435 314.345 101.719C313.724 102.879 313.019 104.08 312.066 105.033C311.196 105.944 309.994 106.151 309.041 106.896C307.757 107.89 307.964 109.588 308.295 110.955C308.502 111.701 309.704 111.369 309.497 110.582Z" fill="#161616"/>
<path d="M295.035 104.039C294.206 98.6965 294.124 93.2295 294.952 87.8867C295.284 85.7331 295.698 83.538 296.444 81.4672C296.9 80.1832 297.521 78.6922 298.433 77.6568C299.676 76.2901 302.121 75.586 302.784 77.9053C302.991 78.6922 304.193 78.3609 303.986 77.574C303.406 75.586 301.499 74.5092 299.51 75.2961C296.983 76.3315 295.781 79.4377 294.994 81.7985C292.673 88.9636 292.673 96.9984 293.792 104.371C293.958 105.157 295.16 104.826 295.035 104.039Z" fill="#161616"/>
<path d="M301.044 82.6691C302.038 80.2255 304.856 75.2969 307.922 78.6517C308.461 79.2315 309.331 78.3618 308.793 77.7819C307.384 76.2495 305.353 76.001 303.572 77.0364C301.583 78.1547 300.671 80.3497 299.842 82.3792C299.552 83.0832 300.754 83.4146 301.044 82.6691Z" fill="#161616"/>
<path d="M306.265 83.7046C306.306 82.1308 306.928 80.3913 308.461 79.6458C309.745 79.0245 311.279 79.3144 312.149 80.4327C312.646 81.0539 313.516 80.1842 313.019 79.5629C311.817 78.0719 309.663 77.6992 307.964 78.4861C305.975 79.4387 305.063 81.5924 305.022 83.7046C304.98 84.4915 306.223 84.4915 306.265 83.7046Z" fill="#161616"/>
<path d="M309.87 84.1174C310.616 81.3425 313.723 78.8161 316.417 81.0526C317.038 81.5496 317.909 80.6798 317.287 80.1828C313.848 77.3665 309.704 80.0172 308.668 83.7861C308.461 84.573 309.662 84.9043 309.87 84.1174Z" fill="#161616"/>
<path d="M316.169 80.8462C317.495 82.71 314.552 83.8696 313.517 84.7394C312.646 85.4435 312.149 86.3546 311.776 87.3901C310.782 90.2478 310.326 93.3541 310.077 96.3361C309.994 97.123 311.237 97.123 311.32 96.3361C311.528 94.141 311.859 91.9459 312.398 89.7922C312.563 89.0881 312.729 88.3841 312.978 87.68C313.517 86.2304 314.304 85.692 315.506 84.8222C316.997 83.7454 318.572 82.0059 317.246 80.1421C316.79 79.5623 315.713 80.1836 316.169 80.8462Z" fill="#161616"/>
<path d="M293.502 102.797C294.165 105.613 294.994 108.388 296.03 111.122C296.32 111.867 297.521 111.536 297.231 110.79C296.195 108.057 295.367 105.282 294.704 102.466C294.538 101.679 293.336 102.01 293.502 102.797Z" fill="#161616"/>
<path d="M295.822 111.909C297.397 126.157 300.919 140.777 310.491 151.876C318.116 160.698 330.215 167.408 342.149 165.213C347.785 164.177 352.923 161.361 357.025 157.426C357.606 156.888 356.735 155.977 356.155 156.556C347.951 164.426 336.265 166.496 325.865 161.816C314.676 156.722 306.845 147.155 302.411 135.848C299.427 128.186 297.936 120.068 297.024 111.951C296.983 111.122 295.739 111.122 295.822 111.909Z" fill="#161616"/>
</svg>
