<svg width="100" height="100" viewBox="0 0 100 100" fill="none" xmlns="http://www.w3.org/2000/svg">
<rect width="100" height="100" rx="5" fill="#E90E09"/>
<path opacity="0.4" d="M16.6666 40C16.6666 34.4772 21.1438 30 26.6666 30H73.3333C78.8561 30 83.3333 34.4772 83.3333 40V73.3333C83.3333 78.8562 78.8561 83.3333 73.3333 83.3333H26.6666C21.1438 83.3333 16.6666 78.8562 16.6666 73.3333V40Z" fill="white"/>
<path d="M30 59.666C30 58.0092 31.3431 56.666 33 56.666H47C48.6569 56.666 50 58.0092 50 59.666V68.9993C50 69.5516 49.5523 69.9993 49 69.9993H31C30.4477 69.9993 30 69.5516 30 68.9993V59.666Z" fill="white"/>
<path d="M43.3333 18.666C43.3333 17.5614 44.2287 16.666 45.3333 16.666H54.6666C55.7712 16.666 56.6666 17.5614 56.6666 18.666V29.9993H43.3333V18.666Z" fill="white"/>
<path fill-rule="evenodd" clip-rule="evenodd" d="M72.5 50C72.5 51.3807 71.3807 52.5 70 52.5L60 52.5C58.6193 52.5 57.5 51.3807 57.5 50C57.5 48.6193 58.6193 47.5 60 47.5L70 47.5C71.3807 47.5 72.5 48.6193 72.5 50Z" fill="white"/>
<path fill-rule="evenodd" clip-rule="evenodd" d="M72.5 63.332C72.5 64.7127 71.3807 65.832 70 65.832L60 65.832C58.6193 65.832 57.5 64.7127 57.5 63.332C57.5 61.9513 58.6193 60.832 60 60.832L70 60.832C71.3807 60.832 72.5 61.9513 72.5 63.332Z" fill="white"/>
<ellipse cx="39.9999" cy="49.9987" rx="6.66667" ry="6.66667" fill="white"/>
</svg>
