<svg width="100" height="100" viewBox="0 0 100 100" fill="none" xmlns="http://www.w3.org/2000/svg">
<rect width="100" height="100" rx="6" fill="#F0CC0D"/>
<path opacity="0.4" d="M80 69.9987V36.6654C80 29.3016 74.0305 23.332 66.6667 23.332H36.6667H33.3333C25.9695 23.332 20 29.3016 20 36.6654V69.9987C20 77.3625 25.9695 83.332 33.3333 83.332H66.6667C74.0305 83.332 80 77.3625 80 69.9987Z" fill="white"/>
<rect x="36.6667" y="16.666" width="26.6667" height="13.3333" rx="4" fill="white"/>
<path fill-rule="evenodd" clip-rule="evenodd" d="M34.1667 43.332C34.1667 41.9513 35.286 40.832 36.6667 40.832H63.3334C64.7141 40.832 65.8334 41.9513 65.8334 43.332C65.8334 44.7127 64.7141 45.832 63.3334 45.832H36.6667C35.286 45.832 34.1667 44.7127 34.1667 43.332Z" fill="white"/>
<path fill-rule="evenodd" clip-rule="evenodd" d="M34.1667 56.666C34.1667 55.2853 35.286 54.166 36.6667 54.166H63.3334C64.7141 54.166 65.8334 55.2853 65.8334 56.666C65.8334 58.0467 64.7141 59.166 63.3334 59.166H36.6667C35.286 59.166 34.1667 58.0467 34.1667 56.666Z" fill="white"/>
<path fill-rule="evenodd" clip-rule="evenodd" d="M34.1667 70C34.1667 68.6193 35.286 67.5 36.6667 67.5H50.0001C51.3808 67.5 52.5001 68.6193 52.5001 70C52.5001 71.3807 51.3808 72.5 50.0001 72.5H36.6667C35.286 72.5 34.1667 71.3807 34.1667 70Z" fill="white"/>
</svg>
