<svg width="100" height="100" viewBox="0 0 100 100" fill="none" xmlns="http://www.w3.org/2000/svg">
<rect width="100" height="100" rx="6" fill="#F0CC0D"/>
<path opacity="0.4" d="M70.0001 20H50.0001C42.6363 20 36.6667 25.9695 36.6667 33.3333V66.6667C36.6667 74.0305 42.6363 80 50.0001 80H70.0001C77.3639 80 83.3334 74.0305 83.3334 66.6667V33.3333C83.3334 25.9695 77.3639 20 70.0001 20Z" fill="white"/>
<path opacity="0.4" d="M16.6667 24C16.6667 21.7909 18.4576 20 20.6667 20H22.6667C24.8759 20 26.6667 21.7909 26.6667 24V72C26.6667 72.8655 26.386 73.7076 25.8667 74.4L21.6667 80L17.4667 74.4C16.9475 73.7076 16.6667 72.8655 16.6667 72V24Z" fill="white"/>
<path d="M26.6667 33.3333H16.6667V22C16.6667 20.8954 17.5622 20 18.6667 20H24.6667C25.7713 20 26.6667 20.8954 26.6667 22V33.3333Z" fill="white"/>
<path fill-rule="evenodd" clip-rule="evenodd" d="M47.5 33.334C47.5 31.9533 48.6193 30.834 50 30.834H70C71.3807 30.834 72.5 31.9533 72.5 33.334C72.5 34.7147 71.3807 35.834 70 35.834H50C48.6193 35.834 47.5 34.7147 47.5 33.334Z" fill="white"/>
<path fill-rule="evenodd" clip-rule="evenodd" d="M47.5 46.666C47.5 45.2853 48.6193 44.166 50 44.166H70C71.3807 44.166 72.5 45.2853 72.5 46.666C72.5 48.0467 71.3807 49.166 70 49.166H50C48.6193 49.166 47.5 48.0467 47.5 46.666Z" fill="white"/>
<path fill-rule="evenodd" clip-rule="evenodd" d="M47.5 60C47.5 58.6193 48.6193 57.5 50 57.5H60C61.3807 57.5 62.5 58.6193 62.5 60C62.5 61.3807 61.3807 62.5 60 62.5H50C48.6193 62.5 47.5 61.3807 47.5 60Z" fill="white"/>
<path fill-rule="evenodd" clip-rule="evenodd" d="M84.9796 64.7846C86.0187 65.6938 86.124 67.2732 85.2148 68.3123L75.6484 79.2453C73.5928 81.5946 70.052 81.9092 67.6143 79.9591L61.7716 75.2849C60.6935 74.4224 60.5186 72.8491 61.3812 71.771C62.2437 70.6928 63.8169 70.518 64.8951 71.3805L70.7378 76.0547C71.0861 76.3333 71.5919 76.2884 71.8855 75.9528L81.4519 65.0198C82.3611 63.9807 83.9405 63.8754 84.9796 64.7846Z" fill="white"/>
</svg>
