<svg width="100" height="100" viewBox="0 0 100 100" fill="none" xmlns="http://www.w3.org/2000/svg">
<rect width="100" height="100" rx="20" fill="url(#paint0_linear_996_730)" fill-opacity="0.1"/>
<g clip-path="url(#clip0_996_730)">
<path d="M71.6427 57.1455C70.1986 55.7709 68.2804 55.0057 66.2867 55.009C64.293 55.0123 62.3773 55.7837 60.9377 57.163L56.1727 61.178C52.2831 59.5677 48.7498 57.2049 45.7758 54.2254C42.8019 51.2458 40.4457 47.7082 38.8427 43.8155L42.8427 39.0655C44.2209 37.6257 44.9915 35.7103 44.9943 33.7173C44.9971 31.7242 44.2319 29.8066 42.8577 28.363C42.8577 28.363 38.2302 22.3555 38.1527 22.278C36.7266 20.841 34.792 20.0233 32.7676 20.0018C30.7431 19.9803 28.7916 20.7567 27.3352 22.163L24.4602 24.663C5.16027 45.183 54.9602 95.008 75.4602 75.413L77.7402 72.788C79.1874 71.3354 80 69.3685 80 67.318C80 65.2675 79.1874 63.3006 77.7402 61.848C77.6602 61.7755 71.6427 57.1455 71.6427 57.1455ZM76.4127 51.438C88.8902 33.073 66.9127 11.1305 48.5677 23.598C48.024 23.9776 47.6534 24.5576 47.5373 25.2105C47.4213 25.8633 47.5694 26.5356 47.949 27.0793C48.3286 27.6229 48.9086 27.9936 49.5614 28.1096C50.2143 28.2257 50.8865 28.0776 51.4302 27.698C65.1102 18.303 81.7052 34.9055 72.3127 48.578C72.1169 48.8468 71.9767 49.1521 71.9003 49.4758C71.8239 49.7995 71.8129 50.1352 71.8679 50.4632C71.9229 50.7912 72.0428 51.105 72.2206 51.3861C72.3984 51.6672 72.6304 51.91 72.9032 52.1002C73.176 52.2905 73.484 52.4245 73.8092 52.4942C74.1344 52.564 74.4703 52.5681 74.7971 52.5065C75.1239 52.4448 75.4351 52.3185 75.7126 52.1351C75.99 51.9516 76.228 51.7146 76.4127 51.438V51.438ZM66.7677 46.7755C67.2364 46.3067 67.4997 45.6709 67.4997 45.008C67.4997 44.3451 67.2364 43.7093 66.7677 43.2405L62.5002 38.973V32.5005C62.5002 31.8375 62.2368 31.2016 61.768 30.7327C61.2991 30.2639 60.6632 30.0005 60.0002 30.0005C59.3372 30.0005 58.7013 30.2639 58.2324 30.7327C57.7636 31.2016 57.5002 31.8375 57.5002 32.5005V40.0005C57.5003 40.6635 57.7638 41.2993 58.2327 41.768L63.2327 46.768C63.7015 47.2367 64.3373 47.5 65.0002 47.5C65.6631 47.5 66.2989 47.2367 66.7677 46.768V46.7755Z" fill="url(#paint1_linear_996_730)"/>
</g>
<defs>
<linearGradient id="paint0_linear_996_730" x1="91.2501" y1="8.4375" x2="-4.55885" y2="77.9213" gradientUnits="userSpaceOnUse">
<stop stop-color="#E90E09"/>
<stop offset="1" stop-color="#E98F09"/>
</linearGradient>
<linearGradient id="paint1_linear_996_730" x1="74.8231" y1="24.9997" x2="17.3791" y2="66.675" gradientUnits="userSpaceOnUse">
<stop stop-color="#E90E09"/>
<stop offset="1" stop-color="#E98F09"/>
</linearGradient>
<clipPath id="clip0_996_730">
<rect width="60" height="60" fill="white" transform="translate(20 20)"/>
</clipPath>
</defs>
</svg>
