<svg width="928" height="696" viewBox="0 0 928 696" fill="none" xmlns="http://www.w3.org/2000/svg">
<path d="M541.082 75.2843C526.872 83.6943 522.812 98.1943 521.13 104.168C520.724 105.618 515.968 123.424 524.204 141.984C526.64 147.494 529.25 153.178 535.166 155.904C538.588 157.528 541.662 157.412 553.726 156.368C559.352 155.904 565.442 155.324 571.938 154.628C576.52 148.77 584.408 137.054 586.728 120.582C587.134 117.508 591.89 80.8523 571.938 71.1083C558.888 64.6703 543.17 74.0083 541.082 75.2843Z" fill="#CD100C"/>
<path d="M278.69 161.762C285.929 161.762 291.798 155.27 291.798 147.262C291.798 139.254 285.929 132.762 278.69 132.762C271.451 132.762 265.582 139.254 265.582 147.262C265.582 155.27 271.451 161.762 278.69 161.762Z" fill="#CD100C"/>
<path d="M575.94 394.11C581.321 394.11 585.684 389.904 585.684 384.714C585.684 379.525 581.321 375.318 575.94 375.318C570.559 375.318 566.196 379.525 566.196 384.714C566.196 389.904 570.559 394.11 575.94 394.11Z" fill="#CD100C"/>
<path d="M278.806 337.387C282.81 337.387 286.056 334.141 286.056 330.137C286.056 326.133 282.81 322.887 278.806 322.887C274.802 322.887 271.556 326.133 271.556 330.137C271.556 334.141 274.802 337.387 278.806 337.387Z" fill="#CD100C"/>
<path d="M265.292 156.949C271.666 156.949 276.834 151.522 276.834 144.827C276.834 138.132 271.666 132.705 265.292 132.705C258.918 132.705 253.75 138.132 253.75 144.827C253.75 151.522 258.918 156.949 265.292 156.949Z" fill="#5222D0"/>
<path d="M573.272 379.262C577.212 379.262 580.406 375.938 580.406 371.838C580.406 367.738 577.212 364.414 573.272 364.414C569.332 364.414 566.138 367.738 566.138 371.838C566.138 375.938 569.332 379.262 573.272 379.262Z" fill="#5222D0"/>
<path d="M668.624 174.522C672.948 174.522 676.454 170.783 676.454 166.17C676.454 161.558 672.948 157.818 668.624 157.818C664.3 157.818 660.794 161.558 660.794 166.17C660.794 170.783 664.3 174.522 668.624 174.522Z" fill="#5222D0"/>
<path d="M498.568 226.142C497.292 224.112 495.204 226.026 494.334 227.418C492.536 230.318 491.376 233.914 492.71 237.22C493.696 239.714 496.132 241.802 498.974 241.396C501.584 241.048 503.556 238.902 503.498 236.292C503.498 235.596 502.512 235.074 501.99 235.654C498.916 239.54 495.146 245.05 498.22 250.038C500.366 253.46 505.644 253.924 507.732 250.212C507.21 250.154 506.688 250.096 506.166 249.98C506.456 251.604 506.746 253.228 506.978 254.852C507.152 255.954 508.834 255.49 508.66 254.388C508.37 252.764 508.08 251.14 507.848 249.516C507.732 248.762 506.572 248.704 506.282 249.284C505.354 250.908 503.266 251.488 501.584 250.676C499.728 249.748 498.916 247.66 498.916 245.63C498.916 242.266 501.294 239.308 503.266 236.814C502.744 236.582 502.28 236.408 501.758 236.176C501.816 238.38 499.67 240.004 497.524 239.54C495.9 239.192 494.856 237.8 494.276 236.292C493.696 234.726 493.754 233.16 494.218 231.594C494.276 231.478 496.654 226.316 497.002 226.896C497.64 227.94 499.148 227.07 498.568 226.142Z" fill="#CD100C"/>
<path d="M261.754 231.362C263.03 227.882 267.264 229.39 268.598 231.826C269.062 232.638 269.294 233.566 269.41 234.494C269.642 236.234 269.468 236.93 267.96 237.974C266.336 239.598 265.93 238.96 266.8 236.06C267.206 235.886 267.67 235.712 268.076 235.538C269.178 235.248 270.454 235.306 271.556 235.654C274.34 236.582 275.732 239.54 275.326 242.266C275.21 242.962 275.906 243.658 276.602 243.252C280.372 241.106 285.36 243.484 286.23 247.718C286.462 248.82 288.144 248.356 287.912 247.254C286.81 241.918 280.488 239.134 275.732 241.802C276.138 242.15 276.602 242.44 277.008 242.788C277.762 237.684 273.876 232.928 268.482 233.74C266.626 234.03 263.842 235.19 263.61 237.394C263.436 239.192 265.118 240.526 266.8 240.7C271.788 241.164 271.672 233.914 270.048 231.014C267.844 227.07 261.754 226.084 260.014 230.956C259.666 231.942 261.348 232.406 261.754 231.362Z" fill="#CD100C"/>
<path d="M567.124 449.674C571.59 452.632 575.36 456.402 578.376 460.81C579.014 461.738 580.522 460.868 579.884 459.94C576.694 455.3 572.75 451.356 568.052 448.224C567.066 447.528 566.196 449.036 567.124 449.674Z" fill="#5222D0"/>
<path d="M578.434 452.865C579.362 453.967 580.232 455.127 581.16 456.229C581.856 457.099 583.074 455.881 582.378 455.011C581.45 453.909 580.58 452.749 579.652 451.647C578.956 450.777 577.738 452.053 578.434 452.865Z" fill="#5222D0"/>
<path d="M573.098 436.625C577.1 440.337 580.406 444.571 582.958 449.385C583.48 450.371 584.988 449.501 584.466 448.515C581.856 443.585 578.434 439.177 574.316 435.407C573.504 434.595 572.286 435.871 573.098 436.625Z" fill="#5222D0"/>
<path d="M172.086 501.932C173.362 514.518 175.566 526.93 178.64 539.226C178.93 540.328 180.612 539.864 180.322 538.762C177.306 526.64 175.102 514.344 173.826 501.932C173.71 500.83 171.97 500.83 172.086 501.932Z" fill="#E8E8E8"/>
<path d="M178.988 539.805C190.414 542.763 202.304 542.763 213.73 539.805C214.832 539.515 214.368 537.833 213.266 538.123C202.13 541.023 190.588 541.023 179.452 538.123C178.408 537.833 177.944 539.515 178.988 539.805Z" fill="#E8E8E8"/>
<path d="M215.064 538.066C215.818 525.712 216.804 513.358 217.964 501.004C218.08 499.902 216.34 499.902 216.224 501.004C215.064 513.358 214.078 525.712 213.324 538.066C213.266 539.168 215.006 539.168 215.064 538.066Z" fill="#E8E8E8"/>
<path d="M173.072 502.86C187.514 505.818 202.362 505.702 216.804 502.454C217.906 502.222 217.442 500.54 216.34 500.772C202.246 503.904 187.688 504.078 173.536 501.178C172.434 500.946 171.97 502.628 173.072 502.86Z" fill="#E8E8E8"/>
<path d="M172.898 507.035C173.362 509.413 176.378 509.297 178.234 509.471C182.932 509.877 187.688 509.993 192.386 509.877C196.91 509.761 201.434 509.413 205.958 508.891C209.554 508.427 213.034 507.963 216.224 506.165C217.21 505.643 216.34 504.135 215.354 504.657C209.612 507.847 201.666 507.731 195.228 508.021C192.038 508.137 188.79 508.195 185.6 508.137C183.918 508.079 174.928 508.485 174.58 506.571C174.348 505.469 172.724 505.933 172.898 507.035Z" fill="#E8E8E8"/>
<path d="M176.204 527.161C178.988 532.091 182.526 536.441 186.76 540.211C187.572 540.965 188.848 539.747 187.978 538.993C183.802 535.339 180.38 531.105 177.712 526.291C177.19 525.305 175.682 526.175 176.204 527.161Z" fill="#E8E8E8"/>
<path d="M173.942 513.763C179.858 523.739 187.05 532.903 195.286 541.139C196.098 541.951 197.316 540.675 196.504 539.921C188.384 531.801 181.308 522.753 175.45 512.893C174.87 511.965 173.362 512.835 173.942 513.763Z" fill="#E8E8E8"/>
<path d="M183.628 509.587C189.776 520.549 196.91 530.931 204.972 540.617C205.668 541.487 206.886 540.269 206.19 539.399C198.244 529.829 191.168 519.563 185.136 508.717C184.614 507.731 183.106 508.601 183.628 509.587Z" fill="#E8E8E8"/>
<path d="M194.706 509.993C200.68 518.925 206.712 527.799 212.802 536.673C213.44 537.601 214.948 536.731 214.31 535.803C208.22 526.929 202.188 518.055 196.214 509.123C195.576 508.195 194.068 509.065 194.706 509.993Z" fill="#E8E8E8"/>
<path d="M203.986 509.472C207.002 514.344 210.25 519.1 213.614 523.74C214.252 524.61 215.76 523.74 215.122 522.87C211.758 518.23 208.51 513.474 205.494 508.602C204.914 507.674 203.406 508.544 203.986 509.472Z" fill="#E8E8E8"/>
<path d="M153.816 450.892C154.512 454.894 155.208 458.954 155.962 462.956C156.194 464.058 156.368 465.218 157.296 465.914C157.934 466.436 160.022 466.378 160.428 466.958C160.486 466.61 160.544 466.262 160.544 465.914C159.674 466.784 158.804 467.654 157.876 468.466C157.644 468.698 157.586 469.046 157.644 469.336C158.166 470.902 158.514 473.222 159.558 474.556C160.08 475.252 161.008 475.136 161.414 475.542C161.762 475.89 161.646 475.658 161.472 476.702C161.356 477.572 161.356 478.5 161.472 479.428C161.646 480.82 162.052 482.154 162.574 483.43C165.59 490.738 171.448 496.654 177.074 502.106C177.886 502.86 179.104 501.642 178.292 500.888C174.696 497.408 171.1 493.812 168.142 489.752C165.242 485.75 161.82 480.356 163.618 475.252C163.734 474.962 163.618 474.556 163.386 474.382C162.284 473.512 161.182 473.86 160.428 472.468C158.978 469.858 159.79 468.988 161.646 467.19C161.936 466.958 161.994 466.436 161.762 466.146C161.298 465.45 160.95 465.218 160.196 464.986C159.732 464.812 159.036 464.986 158.572 464.754C157.586 464.232 157.586 462.956 157.412 462.028C156.716 458.2 156.02 454.314 155.382 450.486C155.266 449.326 153.584 449.79 153.816 450.892Z" fill="#E8E8E8"/>
<path d="M155.092 450.659C177.712 458.199 193.198 479.311 193.662 503.207C193.662 504.309 195.402 504.309 195.402 503.207C194.938 478.557 178.93 456.807 155.556 448.977C154.512 448.629 154.048 450.311 155.092 450.659Z" fill="#E8E8E8"/>
<path d="M189.834 479.428C195.46 463.826 203.754 448.746 217.036 438.48C217.906 437.784 217.036 436.276 216.166 436.972C202.478 447.586 193.952 462.898 188.152 478.964C187.804 480.008 189.486 480.472 189.834 479.428Z" fill="#E8E8E8"/>
<path d="M215.528 438.131C215.934 443.467 216.398 448.803 216.804 454.197C216.92 455.299 218.66 455.299 218.544 454.197C218.138 448.861 217.674 443.525 217.268 438.131C217.21 437.029 215.47 437.029 215.528 438.131Z" fill="#E8E8E8"/>
<path d="M217.558 453.618C216.804 453.792 216.05 453.966 215.354 454.198C214.252 454.488 214.716 456.17 215.818 455.88C216.572 455.706 217.326 455.532 218.022 455.3C219.124 455.01 218.66 453.386 217.558 453.618Z" fill="#E8E8E8"/>
<path d="M214.484 455.763C214.716 456.865 215.644 457.561 216.688 457.677C217.152 457.735 217.558 457.271 217.558 456.807C217.558 456.285 217.152 455.995 216.688 455.937C216.862 455.937 216.688 455.937 216.63 455.937C216.572 455.937 216.456 455.879 216.572 455.937C216.514 455.879 216.456 455.879 216.398 455.821C216.282 455.763 216.514 455.937 216.34 455.763C216.282 455.705 216.282 455.705 216.224 455.647C216.34 455.763 216.224 455.647 216.224 455.589C216.166 455.531 216.166 455.415 216.166 455.531C216.166 455.473 216.108 455.357 216.108 455.299C215.992 454.835 215.47 454.545 215.064 454.719C214.6 454.835 214.368 455.299 214.484 455.763Z" fill="#E8E8E8"/>
<path d="M215.818 457.039C215.876 460.345 215.76 463.593 215.412 466.841C215.296 467.885 215.47 470.321 214.774 471.133C214.716 471.191 213.672 471.365 213.44 471.539C212.57 472.235 213.788 473.453 214.658 472.757C214.948 472.525 215.644 472.757 216.108 472.235C216.804 471.539 216.688 469.915 216.804 469.103C217.326 465.101 217.558 461.041 217.5 456.981C217.558 455.937 215.818 455.937 215.818 457.039Z" fill="#E8E8E8"/>
<path d="M212.744 473.048C214.6 475.252 214.078 478.906 213.904 481.574C213.672 484.648 213.15 487.49 211.642 490.158C209.496 494.102 206.48 497.408 204.914 501.7C204.508 502.744 206.19 503.208 206.596 502.164C208.684 496.538 213.498 492.362 214.948 486.446C215.992 482.212 216.978 475.426 213.962 471.83C213.266 471.018 212.048 472.236 212.744 473.048Z" fill="#E8E8E8"/>
<path d="M199.056 502.511C200.68 486.039 205.03 469.973 211.99 455.009C212.454 454.023 210.946 453.095 210.482 454.139C203.406 469.451 198.94 485.749 197.316 502.569C197.2 503.671 198.94 503.613 199.056 502.511Z" fill="#E8E8E8"/>
<path d="M164.836 460.345C174.986 473.105 182.41 487.779 186.76 503.439C187.05 504.541 188.732 504.077 188.442 502.975C183.976 486.967 176.378 472.119 166.054 459.127C165.358 458.257 164.14 459.475 164.836 460.345Z" fill="#E8E8E8"/>
<path d="M165.938 481.747C170.81 481.457 175.334 482.617 179.452 485.169C180.38 485.749 181.308 484.241 180.322 483.661C175.972 480.993 171.042 479.717 165.938 480.007C164.778 480.065 164.778 481.805 165.938 481.747Z" fill="#E8E8E8"/>
<path d="M176.552 473.975C176.204 470.785 176.61 467.711 177.828 464.695C178.234 463.651 176.552 463.187 176.146 464.231C174.87 467.363 174.464 470.611 174.812 473.975C174.928 475.077 176.668 475.077 176.552 473.975Z" fill="#E8E8E8"/>
<path d="M195.344 464.347C197.258 469.045 200.042 474.033 200.738 479.021C200.912 480.123 202.594 479.659 202.42 478.557C201.666 473.511 198.882 468.523 197.026 463.883C196.62 462.839 194.938 463.303 195.344 464.347Z" fill="#E8E8E8"/>
<path d="M206.016 469.857C207.698 467.943 209.322 465.681 211.468 464.231C213.266 463.013 215.238 462.201 216.63 460.519C217.326 459.649 216.108 458.431 215.412 459.301C213.904 461.099 211.7 461.853 209.902 463.245C207.93 464.753 206.422 466.783 204.798 468.639C204.044 469.509 205.262 470.727 206.016 469.857Z" fill="#E8E8E8"/>
<path d="M206.596 501.932C209.38 501.178 212.222 500.888 215.122 501.062C216.224 501.12 216.224 499.38 215.122 499.322C212.048 499.148 209.09 499.438 206.132 500.25C205.088 500.54 205.494 502.222 206.596 501.932Z" fill="#E8E8E8"/>
<path d="M206.364 502.628C209.612 502.918 212.744 502.512 215.876 501.526C216.92 501.178 216.456 499.496 215.412 499.844C212.454 500.772 209.438 501.12 206.364 500.888C205.262 500.83 205.262 502.57 206.364 502.628Z" fill="#E8E8E8"/>
<path d="M173.826 502.338C174.58 502.338 175.276 502.338 176.03 502.338C177.132 502.338 177.132 500.598 176.03 500.598C175.276 500.598 174.58 500.598 173.826 500.598C172.724 500.598 172.724 502.338 173.826 502.338Z" fill="#E8E8E8"/>
<path d="M216.34 516.373C234.726 516.373 253.17 516.373 271.556 516.373C272.658 516.373 272.658 514.633 271.556 514.633C253.17 514.633 234.726 514.633 216.34 514.633C215.238 514.633 215.238 516.373 216.34 516.373Z" fill="#E8E8E8"/>
<path d="M527.568 504.89C538.53 504.89 549.434 504.89 560.396 504.89C561.498 504.89 561.498 503.15 560.396 503.15C549.434 503.15 538.53 503.15 527.568 503.15C526.466 503.15 526.466 504.89 527.568 504.89Z" fill="#E8E8E8"/>
<path d="M627.096 505.933C674.366 505.933 721.636 505.933 768.906 505.933C782.362 505.933 795.818 505.933 809.274 505.933C810.376 505.933 810.376 504.193 809.274 504.193C762.004 504.193 714.734 504.193 667.464 504.193C654.008 504.193 640.552 504.193 627.096 504.193C625.994 504.193 625.994 505.933 627.096 505.933Z" fill="#E8E8E8"/>
<path d="M557.09 315.52C552.682 324.626 547.926 333.558 542.88 342.316C542.648 342.78 542.822 343.534 543.402 343.592C568.284 347.362 590.556 359.716 612.016 372.186C613.002 372.766 613.872 371.258 612.886 370.678C591.252 358.15 568.864 345.738 543.808 341.91C543.982 342.316 544.156 342.78 544.33 343.186C549.434 334.428 554.132 325.496 558.54 316.39C559.062 315.404 557.612 314.476 557.09 315.52Z" fill="#E8E8E8"/>
<path d="M560.918 347.13C562.658 342.142 564.398 337.096 566.138 332.108C566.892 330.02 567.414 327.7 568.4 325.67C568.632 324.452 569.386 323.524 570.546 322.828C571.242 323.002 571.938 323.176 572.634 323.35C573.678 323.64 574.722 323.872 575.708 324.162C578.086 324.742 581.914 324.742 581.508 327.932C581.218 330.194 579.884 332.63 579.13 334.834C577.39 339.764 575.708 344.694 573.968 349.624C573.62 350.668 575.302 351.132 575.65 350.088C577.912 343.592 580.174 337.038 582.436 330.542C582.958 329.034 584.408 326.482 583.248 324.858C581.972 323.118 578.144 323.002 576.172 322.48C574.258 322.016 570.894 320.276 568.922 321.204C567.24 321.958 566.892 324.858 566.37 326.308C563.992 333.094 561.614 339.938 559.236 346.724C558.888 347.71 560.57 348.174 560.918 347.13Z" fill="#E8E8E8"/>
<path d="M583.306 353.335C587.018 345.505 590.788 337.617 594.5 329.787C596.356 325.843 598.212 321.957 600.126 318.013C600.996 316.215 601.692 314.069 602.794 312.387C603.722 310.937 603.954 310.589 605.578 311.227C606.448 311.575 607.492 312.445 608.246 312.967C609.232 313.663 610.798 314.417 611.494 315.345C612.364 316.447 612.016 317.607 611.494 318.999C610.798 320.855 609.754 322.653 608.884 324.451C606.97 328.395 605.056 332.339 603.026 336.283C599.198 343.765 595.196 351.189 591.078 358.555C590.498 359.541 592.006 360.411 592.586 359.425C597.632 350.493 602.446 341.445 606.97 332.281C609.232 327.757 611.726 323.117 613.64 318.419C614.974 314.997 612.074 313.605 609.522 311.807C607.492 310.415 604.302 307.225 602.098 309.835C600.706 311.459 599.952 314.185 599.024 316.157C597.864 318.535 596.762 320.913 595.602 323.349C590.962 333.093 586.322 342.837 581.74 352.581C581.334 353.451 582.842 354.379 583.306 353.335Z" fill="#E8E8E8"/>
<path d="M602.562 365.399C607.55 357.569 613.176 350.145 619.382 343.301C619.034 343.359 618.686 343.417 618.338 343.417C620.542 344.925 622.688 346.375 624.892 347.883C624.776 347.477 624.66 347.071 624.602 346.665C619.672 354.379 614.742 362.035 609.812 369.749C609.232 370.677 610.682 371.547 611.32 370.619C616.25 362.905 621.18 355.249 626.11 347.535C626.4 347.129 626.168 346.607 625.82 346.317C623.616 344.809 621.47 343.359 619.266 341.851C618.976 341.619 618.454 341.735 618.222 341.967C611.9 348.985 606.158 356.467 601.112 364.413C600.474 365.515 601.982 366.385 602.562 365.399Z" fill="#E8E8E8"/>
<path d="M671.756 310.241C665.956 308.037 662.302 302.237 663.346 296.031C664.39 289.709 670.596 284.083 676.976 287.853C681.384 290.463 683.646 296.379 681.964 301.193C680.224 306.355 674.54 309.429 669.262 308.617C668.16 308.443 667.696 310.125 668.798 310.299C675.004 311.227 681.558 307.805 683.646 301.657C685.734 295.509 682.37 288.085 676.338 285.591C669.262 282.691 662.824 288.781 661.606 295.567C660.33 302.759 664.564 309.371 671.234 311.923C672.336 312.329 672.8 310.647 671.756 310.241Z" fill="#E8E8E8"/>
<path d="M683.646 309.14C672.104 308.792 676.454 290.29 686.662 290.986C696.87 291.74 692.694 312.562 681.5 308.734C680.456 308.386 679.992 310.068 681.036 310.416C693.97 314.824 699.77 291.276 687.416 289.304C681.384 288.318 675.932 294.002 675.004 299.628C674.076 305.196 677.846 310.648 683.646 310.822C684.748 310.938 684.748 309.198 683.646 309.14Z" fill="#E8E8E8"/>
<path d="M675.004 256.65C674.018 255.606 673.554 253.924 674.308 252.648C675.062 251.43 676.918 250.85 678.078 251.778C679.122 252.59 679.354 254.33 678.368 255.2C677.208 256.244 675.352 255.722 674.25 254.852C673.38 254.156 672.162 255.374 673.032 256.07C674.83 257.462 677.614 258.158 679.528 256.476C681.268 254.91 681.094 252.01 679.354 250.502C677.556 248.936 674.714 249.4 673.206 251.14C671.524 253.112 671.988 256.07 673.728 257.868C674.54 258.68 675.758 257.462 675.004 256.65Z" fill="#E8E8E8"/>
<path d="M506.688 300.323C505.064 290.463 510.806 278.573 521.942 278.689C527.626 278.747 533.136 281.067 538.878 280.255C542.938 279.675 546.418 277.355 548.854 274.165C551.29 270.975 552.682 266.973 552.914 262.971C553.204 257.055 550.942 251.023 552.566 245.165C553.378 242.207 555.118 239.481 558.076 238.379C560.918 237.393 563.992 237.973 566.95 237.857C571.242 237.683 574.606 235.827 576.752 232.057C579.768 226.779 579.072 220.457 581.16 214.889C583.654 208.161 590.672 202.419 598.096 205.725C599.082 206.189 600.01 204.681 598.966 204.217C588.874 199.693 580.464 208.799 578.492 217.963C577.216 223.937 577.448 233.217 570.314 235.595C565.326 237.277 559.7 234.667 555.118 238.089C551.348 240.873 550.246 245.977 550.304 250.443C550.478 256.997 552.508 263.377 549.608 269.641C546.94 275.557 541.662 279.095 535.108 278.689C529.308 278.341 523.566 275.963 517.708 277.471C507.79 279.965 503.556 291.681 505.122 300.845C505.238 301.831 506.92 301.367 506.688 300.323Z" fill="#E8E8E8"/>
<path d="M580 258.97C577.854 254.098 580.812 249.458 585.51 247.892C588.932 246.732 592.702 246.674 595.66 244.354C597.98 242.556 598.734 240.294 598.444 237.394C598.154 234.668 598.154 232.522 600.3 230.666C602.098 229.1 604.476 228.52 606.796 228.404C613.176 228.172 621.934 231.42 626.574 225.214C628.72 222.314 628.082 218.718 629.068 215.47C630.402 210.946 634.752 208.162 639.392 208.394C640.494 208.452 640.494 206.712 639.392 206.654C635.854 206.48 632.432 207.814 629.996 210.366C626.98 213.556 627.386 217.152 626.458 221.154C623.964 232.116 608.71 224.402 601.518 227.824C598.85 229.1 596.704 231.362 596.472 234.378C596.182 237.916 597.806 240.816 594.21 243.252C592.296 244.528 590.092 244.934 587.888 245.456C584.234 246.326 580.638 247.428 578.782 250.966C577.274 253.75 577.274 256.94 578.55 259.782C578.956 260.884 580.406 259.956 580 258.97Z" fill="#E8E8E8"/>
<path d="M683.356 181.714C683.124 181.192 682.892 180.612 682.718 180.032C683.472 179.162 684.168 178.292 684.922 177.422C685.154 177.364 686.198 178.06 686.546 178.06C687.416 178.176 688.17 177.944 688.866 177.422C691.012 175.74 690.258 173.072 690.896 170.81C691.94 166.924 696.522 169.592 698.61 166.692C700.698 163.85 699.944 157.818 705.512 159.442C706.614 159.732 707.078 158.05 705.976 157.76C702.786 156.832 699.886 158.34 698.726 161.414C698.378 162.284 698.262 163.27 697.914 164.14C697.16 166.17 696.348 166.46 694.144 166.576C692.52 166.692 691.244 166.576 690.142 167.968C689.214 169.186 689.214 170.752 689.04 172.202C688.866 174.348 689.04 176.146 685.85 175.914C685.212 175.856 684.69 175.276 683.994 175.276C680.166 175.218 680.804 179.916 681.732 182.178C682.08 183.222 683.82 182.758 683.356 181.714Z" fill="#E8E8E8"/>
<path d="M694.26 186.527C693.332 185.309 691.766 181.771 694.492 180.843C695.478 180.495 696.754 180.901 697.798 180.901C698.726 180.901 699.538 180.901 700.292 180.263C702.612 178.407 700.93 175.101 702.148 172.781C704.12 169.011 708.064 171.969 710.848 169.997C712.82 168.605 713.342 165.937 713.69 163.733C713.864 162.631 712.182 162.167 712.008 163.269C711.602 165.879 711.138 168.779 707.89 169.069C706.208 169.243 704.932 168.663 703.366 169.417C700.814 170.635 700.002 172.897 699.944 175.507C699.886 177.711 700.408 178.813 696.696 178.987C696.232 178.987 695.768 178.871 695.304 178.871C693.97 178.987 692.81 179.683 692.056 180.785C690.432 183.105 691.36 185.773 692.984 187.803C693.738 188.673 694.956 187.397 694.26 186.527Z" fill="#E8E8E8"/>
<path d="M201.144 217.964C205.958 212.164 212.802 207.408 220.69 208.22C229.274 209.09 233.508 215.934 234.32 223.938C235.712 237.22 232.464 253.112 241.454 264.422C244.992 268.888 250.27 271.266 255.954 269.874C262.798 268.25 268.134 262.856 274.224 259.666C281.416 255.896 291.334 253.866 297.83 260.188C302.586 264.828 303.63 271.904 305.196 278.052C306.646 283.62 309.14 289.768 314.128 293.074C317.144 295.046 320.45 295.22 323.93 294.988C327.816 294.698 335.762 294.466 334.95 300.556C334.834 301.658 336.574 301.658 336.69 300.556C336.98 298.178 335.878 296.264 333.964 294.872C330.948 292.668 327.468 293.016 323.93 293.248C319.928 293.538 316.506 293.19 313.432 290.348C310.648 287.796 308.966 284.2 307.748 280.662C305.718 274.572 305.138 267.902 301.658 262.334C298.236 256.824 292.32 254.156 285.94 254.388C277.878 254.678 271.092 259.318 264.654 263.61C261.58 265.64 258.274 267.786 254.504 268.424C249.98 269.178 245.978 267.206 243.078 263.842C237.626 257.462 236.756 248.356 236.466 240.352C236.176 232.87 237.162 224.75 234.668 217.5C232.406 210.888 226.664 206.77 219.762 206.422C211.758 206.016 204.74 210.83 199.81 216.746C199.172 217.616 200.39 218.834 201.144 217.964Z" fill="#E8E8E8"/>
<path d="M171.854 307.458C180.902 322.538 188.964 338.14 196.098 354.206C196.562 355.25 198.07 354.322 197.606 353.336C190.472 337.27 182.352 321.668 173.362 306.588C172.782 305.602 171.274 306.472 171.854 307.458Z" fill="#E8E8E8"/>
<path d="M172.956 306.761C187.05 298.003 201.55 289.825 216.456 282.401C217.442 281.879 216.572 280.371 215.586 280.893C200.738 288.317 186.238 296.495 172.086 305.253C171.1 305.891 171.97 307.399 172.956 306.761Z" fill="#E8E8E8"/>
<path d="M215.412 281.648C222.778 297.134 230.55 312.388 238.786 327.41C239.308 328.396 240.816 327.526 240.294 326.54C232.058 311.518 224.228 296.264 216.92 280.778C216.398 279.734 214.948 280.604 215.412 281.648Z" fill="#E8E8E8"/>
<path d="M198.07 354.553C211.932 346.201 225.62 337.617 239.192 328.801C240.12 328.221 239.25 326.713 238.322 327.293C224.75 336.109 211.062 344.693 197.2 353.045C196.272 353.625 197.142 355.133 198.07 354.553Z" fill="#E8E8E8"/>
<path d="M196.968 301.657C196.62 312.793 197.258 323.871 198.882 334.891C199.056 335.993 200.738 335.529 200.564 334.427C198.94 323.581 198.36 312.619 198.708 301.657C198.766 300.555 197.026 300.555 196.968 301.657Z" fill="#E8E8E8"/>
<path d="M197.026 301.078C205.088 307.4 213.15 313.606 221.328 319.754C222.198 320.45 223.068 318.942 222.198 318.246C214.136 312.214 206.132 306.066 198.244 299.86C197.374 299.164 196.156 300.382 197.026 301.078Z" fill="#E8E8E8"/>
<path d="M200.68 335.24C207.35 329.266 216.05 326.076 222.372 319.638C223.184 318.826 221.908 317.608 221.154 318.42C214.832 324.8 206.19 328.048 199.462 334.022C198.592 334.718 199.868 335.936 200.68 335.24Z" fill="#E8E8E8"/>
<path d="M174.174 316.564C176.03 315.636 177.886 314.766 179.742 313.838C180.728 313.374 179.858 311.866 178.872 312.33C177.016 313.258 175.16 314.128 173.304 315.056C172.318 315.578 173.188 317.028 174.174 316.564Z" fill="#E8E8E8"/>
<path d="M180.148 326.422C181.714 325.378 183.396 324.509 185.136 323.755C186.18 323.349 185.716 321.666 184.672 322.072C182.758 322.884 180.96 323.813 179.22 324.915C178.35 325.553 179.22 327.06 180.148 326.422Z" fill="#E8E8E8"/>
<path d="M186.702 337.791C188.326 336.979 189.95 336.167 191.574 335.413C192.56 334.891 191.69 333.441 190.704 333.905C189.08 334.717 187.456 335.529 185.832 336.283C184.846 336.747 185.716 338.255 186.702 337.791Z" fill="#E8E8E8"/>
<path d="M190.066 349.16C191.864 347.594 193.72 346.26 195.808 345.1C196.794 344.52 195.924 343.07 194.938 343.592C192.792 344.81 190.762 346.26 188.848 347.942C187.978 348.696 189.196 349.914 190.066 349.16Z" fill="#E8E8E8"/>
<path d="M218.718 293.073C220.052 292.145 221.444 291.507 223.01 291.101C224.112 290.811 223.648 289.187 222.546 289.419C220.864 289.825 219.24 290.521 217.79 291.565C216.92 292.203 217.79 293.711 218.718 293.073Z" fill="#E8E8E8"/>
<path d="M223.88 302.991C225.736 301.831 227.592 300.671 229.39 299.453C230.318 298.873 229.448 297.365 228.52 297.945C226.664 299.105 224.808 300.265 223.01 301.483C222.024 302.121 222.894 303.629 223.88 302.991Z" fill="#E8E8E8"/>
<path d="M229.796 314.881C231.768 314.011 233.798 313.141 235.77 312.271C236.814 311.807 235.886 310.299 234.9 310.763C232.928 311.633 230.898 312.503 228.926 313.373C227.882 313.837 228.81 315.345 229.796 314.881Z" fill="#E8E8E8"/>
<path d="M234.03 322.653C235.596 321.145 237.336 319.869 239.25 318.767C240.236 318.245 239.366 316.737 238.38 317.259C236.35 318.419 234.494 319.753 232.812 321.377C232 322.189 233.218 323.407 234.03 322.653Z" fill="#E8E8E8"/>
<path d="M203 346.898C204.45 349.044 205.668 351.306 206.596 353.684C207.002 354.728 208.684 354.264 208.278 353.22C207.292 350.668 206.074 348.232 204.508 345.97C203.87 345.1 202.362 345.97 203 346.898Z" fill="#E8E8E8"/>
<path d="M211.874 342.083C212.976 344.055 214.02 345.969 215.122 347.941C215.644 348.927 217.152 348.057 216.63 347.071C215.528 345.099 214.484 343.185 213.382 341.213C212.86 340.227 211.352 341.097 211.874 342.083Z" fill="#E8E8E8"/>
<path d="M222.14 334.718C223.3 336.806 224.46 338.894 225.62 340.982C226.142 341.968 227.65 341.098 227.128 340.112C225.968 338.024 224.808 335.936 223.648 333.848C223.126 332.862 221.618 333.732 222.14 334.718Z" fill="#E8E8E8"/>
<path d="M231.362 329.208C232.29 331.412 233.218 333.616 234.204 335.762C234.668 336.806 236.118 335.878 235.712 334.892C234.784 332.688 233.856 330.484 232.87 328.338C232.406 327.352 230.898 328.222 231.362 329.208Z" fill="#E8E8E8"/>
<path d="M178.756 297.829C179.858 299.627 180.902 301.425 182.004 303.165C182.584 304.151 184.092 303.223 183.512 302.295C182.41 300.497 181.366 298.699 180.264 296.959C179.684 296.031 178.176 296.901 178.756 297.829Z" fill="#E8E8E8"/>
<path d="M188.732 292.029C189.776 294.349 190.82 296.669 191.864 298.989C192.328 300.033 193.836 299.105 193.372 298.119C192.328 295.799 191.284 293.479 190.24 291.159C189.718 290.115 188.268 290.985 188.732 292.029Z" fill="#E8E8E8"/>
<path d="M197.722 286.462C199.288 288.55 200.506 290.812 201.318 293.248C201.666 294.292 203.348 293.828 203 292.784C202.13 290.174 200.912 287.738 199.23 285.592C198.592 284.722 197.084 285.534 197.722 286.462Z" fill="#E8E8E8"/>
<path d="M207.408 281.995C208.626 283.851 209.786 285.649 211.004 287.505C211.584 288.433 213.092 287.563 212.512 286.635C211.294 284.779 210.134 282.981 208.916 281.125C208.278 280.197 206.77 281.067 207.408 281.995Z" fill="#E8E8E8"/>
<path d="M297.598 166.981C291.972 165.241 291.682 159.267 294.35 154.801C296.96 150.451 302.006 149.291 305.95 152.887C309.198 155.903 309.488 161.065 306.472 164.371C303.456 167.735 298.526 167.677 295.046 165.125C294.176 164.429 293.306 165.937 294.176 166.633C298.584 169.881 305.022 169.359 308.328 164.777C311.75 160.137 310.532 153.641 305.718 150.509C294.118 143.027 284.142 164.603 297.134 168.663C298.236 169.011 298.7 167.329 297.598 166.981Z" fill="#E8E8E8"/>
<path d="M306.936 168.489C302.586 169.823 301.542 164.603 303.456 161.819C305.022 159.557 308.096 158.223 310.88 158.977C313.548 159.673 315.462 162.399 314.766 165.125C313.896 168.547 310.3 169.765 307.11 169.243C306.008 169.069 305.544 170.751 306.646 170.925C310.938 171.679 315.578 169.823 316.506 165.183C317.318 161.181 314.186 157.527 310.3 157.063C306.008 156.541 301.31 159.673 300.73 164.081C300.208 167.909 303.688 171.331 307.516 170.113C308.502 169.823 308.038 168.141 306.936 168.489Z" fill="#E8E8E8"/>
<path d="M269.932 206.248C268.54 209.09 270.512 211.932 273.412 212.686C275.616 213.266 277.936 212.744 280.198 212.86C282.634 212.976 285.07 213.556 287.274 214.542C292.146 216.746 295.278 220.748 295.452 226.142C295.626 230.666 294.292 235.364 296.264 239.656C300.44 248.704 311.924 241.802 317.84 247.66C322.77 252.59 320.74 261.58 327.352 265.35C328.338 265.93 329.208 264.422 328.222 263.842C322.306 260.478 323.698 251.72 319.522 246.848C317.318 244.296 314.128 243.6 310.88 243.368C306.936 243.136 301.832 243.948 298.932 240.584C295.568 236.64 297.366 230.724 297.192 226.084C297.076 222.43 295.858 219.124 293.306 216.514C291.044 214.252 288.086 212.686 285.012 211.874C283.446 211.468 281.822 211.178 280.198 211.12C278.11 211.004 269.062 212.048 271.498 207.118C271.962 206.132 270.454 205.262 269.932 206.248Z" fill="#E8E8E8"/>
<path d="M134.328 519.332C144.826 519.332 155.266 519.332 165.764 519.332C166.866 519.332 166.866 517.592 165.764 517.592C155.266 517.592 144.826 517.592 134.328 517.592C133.168 517.592 133.168 519.332 134.328 519.332Z" fill="#E8E8E8"/>
<path d="M151.264 558.656C171.448 558.656 191.574 558.656 211.758 558.656C212.86 558.656 212.86 556.916 211.758 556.916C191.574 556.916 171.448 556.916 151.264 556.916C150.104 556.916 150.104 558.656 151.264 558.656Z" fill="#E8E8E8"/>
<path d="M209.322 547.752C228.056 547.752 246.848 547.752 265.582 547.752C266.684 547.752 266.684 546.012 265.582 546.012C246.848 546.012 228.056 546.012 209.322 546.012C208.162 546.012 208.162 547.752 209.322 547.752Z" fill="#E8E8E8"/>
<path d="M521.304 544.735C530.758 542.415 540.27 542.183 549.898 543.691C553.958 544.329 558.076 544.967 562.194 544.619C566.196 544.271 570.082 543.053 573.968 542.009C578.376 540.791 582.784 539.863 587.424 540.211C592.18 540.559 596.762 541.893 601.402 542.937C605.404 543.865 609.464 544.503 613.582 544.445C617.932 544.329 622.224 543.575 626.458 542.937C638.058 541.081 648.962 542.241 660.446 544.155C661.548 544.329 662.012 542.647 660.91 542.473C651.63 540.965 642.292 539.399 632.838 540.327C622.978 541.313 613.814 543.749 603.838 541.719C595.486 540.037 587.54 537.427 578.956 539.051C574.374 539.921 570.024 541.545 565.442 542.415C560.338 543.401 555.408 542.821 550.304 542.009C540.386 540.501 530.584 540.617 520.782 543.053C519.796 543.343 520.26 545.025 521.304 544.735Z" fill="#E8E8E8"/>
<path d="M610.392 527.103C628.604 526.117 646.816 525.131 665.028 524.203C674.018 523.739 682.718 523.913 691.65 525.131C695.652 525.653 699.48 525.769 703.482 525.305C707.948 524.783 712.588 524.087 716.764 526.233C717.75 526.755 718.62 525.247 717.634 524.725C710.558 521.129 702.38 524.493 694.782 523.797C690.258 523.391 685.85 522.521 681.326 522.289C676.628 522.057 671.93 522.173 667.232 522.405C648.266 523.275 629.3 524.435 610.334 525.421C609.29 525.421 609.29 527.161 610.392 527.103Z" fill="#E8E8E8"/>
<path d="M253.75 576.925C262.334 577.737 270.976 578.549 279.56 577.563C283.562 577.099 287.39 576.229 291.276 575.069C296.322 573.561 300.846 573.155 306.066 574.083C310.068 574.779 314.012 575.765 318.014 576.113C322.248 576.461 326.482 576.229 330.716 575.823C339.59 574.953 348.464 573.445 357.28 575.417C358.382 575.649 358.846 573.967 357.744 573.735C349.276 571.879 340.808 573.097 332.282 573.967C328.048 574.373 323.814 574.779 319.58 574.547C314.766 574.315 310.126 573.039 305.428 572.285C301.484 571.647 297.714 571.647 293.828 572.575C289.652 573.619 285.708 575.011 281.416 575.649C272.252 576.983 262.914 576.055 253.75 575.243C252.59 575.069 252.648 576.809 253.75 576.925Z" fill="#E8E8E8"/>
<path d="M345.506 108.923C343.244 107.357 340.17 104.863 341.098 101.731C342.084 98.4834 344.52 100.049 346.782 99.2954C349.798 98.3094 349.624 94.6554 348.754 92.2774C347.884 89.9574 346.028 84.3314 350.842 86.2454C351.944 86.7094 352.756 87.4634 354.032 87.0574C355.192 86.7094 355.772 85.6654 356.062 84.5634C356.294 83.5774 356.12 82.5334 356.062 81.4894C355.946 80.7934 355.888 80.0394 355.888 79.3434C355.656 77.6614 356.7 76.9654 358.904 77.2554C358.962 78.3574 360.702 78.3574 360.644 77.2554C360.528 75.6314 359.31 74.4714 357.57 74.5294C355.54 74.5874 354.438 76.5594 354.206 78.4154C354.032 79.6914 355.076 82.6494 354.496 83.6934C353.8 84.1574 353.104 84.6794 352.35 85.1434C352.06 84.9694 351.77 84.7954 351.48 84.6214C350.958 84.4474 350.552 84.0994 350.03 83.9834C348.232 83.5774 346.782 84.6794 346.144 86.3034C345.042 89.0874 347.014 91.4074 347.594 94.0174C348.348 97.6134 345.622 97.2074 343.244 97.6134C342.2 97.7874 341.33 98.3094 340.634 99.0634C336.98 103.297 341.214 107.995 344.694 110.431C345.564 111.069 346.434 109.561 345.506 108.923Z" fill="#E8E8E8"/>
<path d="M356.932 107.299C355.018 105.095 353.568 102.079 357.28 100.919C358.208 100.629 359.252 100.745 360.122 100.165C362.036 98.8308 361.224 97.0328 360.876 95.1768C360.702 94.1328 360.296 92.7408 360.934 91.6968C361.398 90.9428 363.08 90.6528 363.95 90.4788C365.168 90.1888 366.444 90.0148 367.488 89.3188C369.054 88.2168 369.634 86.2448 368.59 84.5628C368.01 83.6348 366.502 84.5048 367.082 85.4328C368.822 88.2168 360.702 88.9708 359.31 91.0008C357.686 93.3788 361.108 97.5548 358.266 99.0628C357.164 99.6428 355.772 99.2368 354.728 99.9908C353.974 100.513 353.452 101.325 353.22 102.195C352.582 104.689 354.264 106.835 355.772 108.575C356.468 109.387 357.686 108.169 356.932 107.299Z" fill="#E8E8E8"/>
<path d="M288.434 93.5531C286.926 92.5091 286.752 90.6531 287.216 89.0291C287.506 87.9271 288.898 84.9111 290.232 84.7951C292.436 84.5631 293.538 87.3471 294.118 88.9711C294.64 90.5371 294.814 92.1031 294.872 93.7271C294.872 94.8291 296.612 94.8291 296.612 93.7271C296.554 90.4791 294.408 80.5031 289.072 83.4031C287.042 84.5051 285.534 87.6951 285.302 89.8991C285.07 91.9871 285.882 93.8431 287.564 95.0611C288.434 95.6991 289.304 94.1911 288.434 93.5531Z" fill="#E8E8E8"/>
<path d="M287.738 94.4809C285.65 95.0029 283.562 95.5249 281.416 96.0469C280.198 96.3369 278.11 96.4529 277.124 97.3809C275.442 98.9469 275.906 103.761 275.906 105.791C275.906 106.371 276.486 106.777 277.008 106.603C277.298 106.545 277.588 106.429 277.936 106.371C279.444 105.559 280.198 106.081 280.256 107.821C281.416 108.981 281.416 109.677 280.256 109.793C279.56 110.083 278.864 110.199 278.11 110.199C277.646 110.257 277.24 110.547 277.24 111.069C277.356 114.781 277.646 118.435 278.052 122.147C278.168 123.249 279.908 123.249 279.792 122.147C279.386 118.435 279.096 114.781 278.98 111.069C278.69 111.359 278.4 111.649 278.11 111.939C280.546 111.649 284.432 110.663 283.91 107.357C283.33 103.819 279.038 104.225 276.602 104.921C276.95 105.211 277.356 105.501 277.704 105.733C277.704 104.399 277.704 103.123 277.82 101.789C277.994 99.7009 277.878 98.9469 279.792 98.1929C282.402 97.1489 285.476 96.8009 288.202 96.1049C289.304 95.9309 288.84 94.2489 287.738 94.4809Z" fill="#E8E8E8"/>
<path d="M296.09 95.0041C298.526 94.8881 301.02 94.8881 303.456 95.1781C305.776 95.4681 305.66 95.8161 306.008 97.8461C306.24 99.1221 306.298 100.456 306.414 101.732C306.878 106.72 307.226 111.708 307.516 116.696C307.574 117.798 309.314 117.798 309.256 116.696C308.908 109.91 308.676 102.95 307.574 96.2221C307.284 94.5401 306.994 94.0181 305.254 93.7281C302.238 93.1481 299.106 93.1481 296.09 93.3221C294.988 93.3221 294.988 95.0621 296.09 95.0041Z" fill="#E8E8E8"/>
<path d="M279.328 123.365C282.75 122.785 286.172 122.205 289.536 121.625C293.422 120.987 297.134 121.277 301.02 120.987C302.818 120.813 311.344 119.943 308.212 116.405C307.458 115.593 306.24 116.811 306.994 117.623C307.458 118.145 299.57 119.305 299.396 119.305C296.96 119.363 294.524 119.247 292.088 119.537C287.68 120.059 283.272 120.986 278.864 121.74C277.762 121.856 278.226 123.539 279.328 123.365Z" fill="#E8E8E8"/>
<path d="M587.424 457.389C587.25 463.479 587.076 469.569 586.902 475.717C594.616 476.239 602.272 476.703 609.986 477.225C609.986 470.961 609.986 464.697 609.986 458.433C602.446 458.085 594.964 457.737 587.424 457.389Z" fill="white" stroke="#161616" stroke-width="2" stroke-miterlimit="10"/>
<path d="M597.458 525.075C598.502 531.803 598.966 537.371 599.198 541.373C599.952 554.655 599.372 557.729 598.212 560.165C595.37 566.139 590.208 568.633 590.672 569.445C591.02 569.967 593.572 569.387 604.94 563.413C604.244 550.189 603.606 537.023 602.91 523.799C601.112 524.263 599.314 524.669 597.458 525.075Z" fill="white" stroke="#161616" stroke-width="2" stroke-miterlimit="10"/>
<path d="M582.436 482.445C592.296 482.503 602.156 482.619 612.016 482.677C610.914 495.901 609.87 509.067 608.768 522.291C600.184 521.595 591.542 520.957 582.958 520.261C582.726 507.675 582.552 495.089 582.436 482.445Z" fill="white" stroke="#161616" stroke-width="2" stroke-miterlimit="10"/>
<path d="M586.438 524.61C589.57 532.208 590.614 538.762 590.962 543.17C591.484 549.666 591.832 554.654 588.7 557.96C587.54 559.236 585.626 560.454 581.914 562.948C578.608 565.152 577.042 565.964 577.158 566.196C577.332 566.544 580.522 565.848 594.442 560.918C595.37 556.22 596.124 550.188 595.95 543.112C595.718 535.572 594.5 529.134 593.166 524.32C590.962 524.436 588.7 524.494 586.438 524.61Z" fill="white" stroke="#161616" stroke-width="2" stroke-miterlimit="10"/>
<path d="M591.484 569.968C593.224 568.518 594.848 566.952 596.414 565.27C598.212 563.298 600.88 560.282 603.664 562.892C603.722 562.428 603.78 561.964 603.838 561.5C599.72 563.53 595.66 565.56 591.542 567.532C590.73 567.938 591.136 569.156 592.006 569.156C595.892 569.214 598.328 562.428 602.33 563.704C603.374 564.052 603.838 562.37 602.794 562.022C601.054 561.5 599.72 561.964 598.27 563.008C596.588 564.226 594.21 567.416 592.064 567.416C592.238 567.938 592.354 568.518 592.528 569.04C596.646 567.01 600.706 564.98 604.824 563.008C605.346 562.776 605.404 562.022 604.998 561.616C603.432 560.166 600.648 559.644 598.676 560.572C597.226 561.21 596.298 562.892 595.254 563.994C593.688 565.676 592.064 567.184 590.324 568.692C589.396 569.446 590.614 570.722 591.484 569.968Z" fill="#161616"/>
<path d="M598.618 560.919C600.358 560.977 602.04 561.325 603.664 562.021C604.65 562.485 605.578 560.977 604.534 560.513C602.62 559.643 600.706 559.179 598.618 559.121C597.516 559.179 597.516 560.919 598.618 560.919Z" fill="#161616"/>
<path d="M589.106 558.888C590.44 559.236 591.6 559.932 592.528 560.976C593.282 561.788 594.5 560.57 593.746 559.758C592.586 558.54 591.136 557.67 589.512 557.264C588.526 556.916 588.062 558.598 589.106 558.888Z" fill="#161616"/>
<path d="M579.71 565.908C581.508 564.574 583.364 563.356 585.278 562.196C586.148 561.674 587.076 560.978 588.004 560.688C589.454 560.166 590.324 560.514 591.658 561.094C591.658 560.572 591.658 560.108 591.658 559.586C589.802 560.398 587.714 560.34 585.8 561.152C583.944 561.906 582.204 563.761 580.29 564.109C580.522 564.631 580.754 565.154 580.986 565.676C584.408 563.994 588.236 563.704 591.658 562.022C592.644 561.5 591.774 560.05 590.788 560.514C587.366 562.196 583.538 562.486 580.116 564.168C579.188 564.632 579.884 565.908 580.812 565.734C582.9 565.386 584.582 563.472 586.554 562.718C588.526 561.964 590.672 561.906 592.586 561.094C593.166 560.862 593.166 559.818 592.586 559.586C590.382 558.6 589.396 558.019 587.192 559.179C584.292 560.687 581.566 562.485 578.956 564.399C577.912 565.037 578.782 566.546 579.71 565.908Z" fill="#161616"/>
<path d="M589.628 533.484C591.078 532.962 592.528 533.02 593.862 533.716C594.848 534.238 595.718 532.73 594.732 532.208C592.992 531.28 591.02 531.106 589.164 531.802C588.12 532.208 588.584 533.89 589.628 533.484Z" fill="#161616"/>
<path d="M591.078 539.284C592.296 539.168 593.456 539.458 594.384 540.27C595.254 540.966 596.472 539.748 595.602 539.052C594.326 538.008 592.76 537.428 591.078 537.544C589.976 537.602 589.976 539.342 591.078 539.284Z" fill="#161616"/>
<path d="M591.716 546.535C592.818 546.419 593.862 546.825 594.5 547.753C595.08 548.681 596.588 547.811 596.008 546.883C595.138 545.433 593.456 544.563 591.774 544.795C591.31 544.853 590.904 545.143 590.904 545.665C590.846 546.071 591.252 546.593 591.716 546.535Z" fill="#161616"/>
<path d="M599.198 533.078C600.242 532.498 601.576 532.556 602.562 533.368C603.432 534.064 604.65 532.846 603.78 532.15C602.214 530.874 600.126 530.584 598.328 531.57C597.342 532.15 598.212 533.658 599.198 533.078Z" fill="#161616"/>
<path d="M600.184 544.041C601.112 543.635 602.156 543.809 602.91 544.505C603.722 545.259 604.998 544.041 604.128 543.287C602.794 542.069 600.938 541.779 599.256 542.591C598.27 542.997 599.198 544.505 600.184 544.041Z" fill="#161616"/>
<path d="M600.416 553.321C601.344 552.741 602.504 552.741 603.374 553.437C604.244 554.133 605.462 552.915 604.592 552.219C603.142 551.001 601.112 550.827 599.546 551.871C598.618 552.451 599.488 553.959 600.416 553.321Z" fill="#161616"/>
<path d="M613.408 482.619C612.248 495.959 611.088 509.299 609.928 522.639" stroke="#161616" stroke-width="6" stroke-miterlimit="10"/>
<path d="M582.784 520.783C592.47 521.479 602.156 522.117 611.842 522.813" stroke="#161616" stroke-width="6" stroke-miterlimit="10"/>
<path d="M611.9 457.91C611.668 464.522 611.378 471.076 611.146 477.688" stroke="#161616" stroke-width="6" stroke-miterlimit="10"/>
<path d="M613.118 490.449C618.512 489.463 624.254 493.697 624.66 499.265C625.24 506.225 617.294 507.443 612.074 506.689C610.972 506.515 610.508 508.197 611.61 508.371C617.99 509.299 626.98 507.501 626.4 499.265C625.936 492.479 619.15 487.549 612.654 488.767C611.552 488.941 612.016 490.623 613.118 490.449Z" fill="#161616"/>
<path d="M611.842 509.763C614.104 510.227 615.902 511.851 616.54 514.055C616.83 515.157 618.512 514.693 618.222 513.591C617.468 510.807 615.206 508.603 612.364 508.081C611.204 507.907 610.74 509.531 611.842 509.763Z" fill="#161616"/>
<path d="M610.972 509.183C612.364 511.213 613.002 513.475 612.77 515.969C612.712 517.071 614.452 517.071 614.51 515.969C614.684 513.243 613.988 510.575 612.422 508.313C611.842 507.385 610.334 508.255 610.972 509.183Z" fill="#161616"/>
<path d="M582.378 489.636C578.55 487.2 571.532 494.218 570.662 497.64C568.922 504.6 577.854 503.788 581.566 506.108C582.494 506.688 583.364 505.18 582.436 504.6C579.768 502.918 575.824 503.556 573.504 501.468C570.662 498.916 573.272 495.842 575.244 494.044C576.288 493.116 579.826 490.042 581.508 491.086C582.436 491.782 583.364 490.274 582.378 489.636Z" fill="#161616"/>
<path d="M581.45 505.297C579.942 505.877 578.55 506.747 577.39 507.965C576.52 508.893 575.418 510.343 576.288 511.619C576.926 512.547 578.434 511.677 577.796 510.749C577.39 510.169 578.898 508.893 579.304 508.545C580.058 507.849 580.928 507.327 581.914 506.979C582.958 506.573 582.552 504.891 581.45 505.297Z" fill="#161616"/>
<path d="M580.754 506.514C579.652 508.254 579.304 510.226 579.71 512.198C579.942 513.3 581.624 512.836 581.392 511.734C581.044 510.168 581.392 508.718 582.262 507.384C582.9 506.456 581.392 505.586 580.754 506.514Z" fill="#161616"/>
<path d="M586.264 488.535C585.974 492.769 586.032 497.061 586.322 501.295C586.438 502.397 588.178 502.397 588.062 501.295C587.714 497.061 587.714 492.769 588.004 488.535C588.12 487.433 586.38 487.433 586.264 488.535Z" fill="#161616"/>
<path d="M587.54 488.999C593.688 489.347 599.778 489.579 605.926 489.695C605.636 489.405 605.346 489.115 605.056 488.825C604.882 493.175 604.708 497.583 604.476 501.933C604.418 503.035 606.158 503.035 606.216 501.933C606.39 497.583 606.564 493.175 606.796 488.825C606.796 488.361 606.39 487.955 605.926 487.955C599.778 487.839 593.688 487.607 587.54 487.259C586.438 487.201 586.438 488.941 587.54 488.999Z" fill="#161616"/>
<path d="M586.844 502.049C589.396 502.745 592.238 502.571 594.79 502.745C597.922 502.919 601.112 503.151 604.244 503.325C605.346 503.383 605.346 501.643 604.244 501.585C601.46 501.411 598.676 501.237 595.892 501.063C593.108 500.889 589.976 501.063 587.25 500.367C586.264 500.077 585.8 501.759 586.844 502.049Z" fill="#161616"/>
<path d="M588.816 511.038C589.86 513.3 592.122 511.328 593.862 512.14C594.674 512.488 594.5 513.01 595.602 513.068C596.878 513.126 600.01 510.574 600.648 512.952C600.822 513.59 601.634 513.764 602.098 513.358C602.678 513.184 603.316 513.01 603.896 512.894C604.592 513.764 605.868 512.488 605.114 511.676C603.78 510.11 602.098 510.98 600.822 512.14C601.286 512.256 601.808 512.372 602.272 512.546C601.75 510.516 599.604 509.182 597.574 510.11C596.588 510.574 596.472 511.444 594.964 510.864C594.674 510.748 594.558 510.284 594.268 510.168C593.63 509.936 590.266 510.284 590.266 510.226C589.86 509.124 588.352 509.994 588.816 511.038Z" fill="#161616"/>
<path d="M591.89 465.393C592.006 464.755 592.76 464.581 593.282 464.813C594.036 465.103 594.442 465.973 594.79 466.611C595.254 467.597 596.762 466.727 596.298 465.741C595.66 464.465 594.674 463.131 593.108 462.957C591.832 462.841 590.498 463.595 590.266 464.871C589.976 466.031 591.658 466.495 591.89 465.393Z" fill="#161616"/>
<path d="M602.562 466.205C602.678 465.625 603.2 465.277 603.78 465.509C604.476 465.741 604.766 466.611 604.882 467.249C605.056 468.351 606.738 467.887 606.564 466.785C606.332 465.393 605.404 463.943 603.896 463.711C602.562 463.537 601.112 464.349 600.88 465.741C600.706 466.843 602.388 467.307 602.562 466.205Z" fill="#161616"/>
<path d="M592.76 469.046C594.732 472.526 599.43 473.048 601.982 469.916C602.678 469.046 601.46 467.828 600.764 468.698C598.908 470.96 595.718 470.786 594.268 468.176C593.746 467.19 592.238 468.06 592.76 469.046Z" fill="#161616"/>
<path d="M531.918 153.874C524.61 150.916 520.202 143.84 517.534 136.764C514.692 129.398 513.474 121.394 513.88 113.506C514.576 98.9485 520.782 84.2165 532.266 74.9365C543.112 66.1205 559.178 63.6265 571.242 71.6305C583.828 79.9825 586.09 97.2085 586.206 111.07C586.322 126.498 582.726 142.68 571.3 153.758C570.488 154.512 571.706 155.788 572.518 154.976C583.364 144.42 587.482 129.34 587.888 114.608C588.294 100.166 586.554 81.8965 574.664 71.9785C563.528 62.6985 546.998 63.1625 535.108 70.7025C521.942 79.0545 514.17 94.1925 512.488 109.446C511.444 118.9 512.604 128.702 516.084 137.634C519.042 145.174 523.74 152.366 531.512 155.498C532.498 155.962 532.904 154.28 531.918 153.874Z" fill="#161616"/>
<path d="M531.106 154.976C529.134 157.76 529.54 161.878 532.44 163.966C534.644 165.532 537.892 165.764 540.502 166.112C543.634 166.576 546.824 166.75 550.014 166.75C555.698 166.692 562.194 166.286 567.472 164.082C571.3 162.458 574.2 158.63 572.17 154.512C571.706 153.526 570.198 154.396 570.662 155.382C575.012 164.256 554.422 165.01 549.956 165.01C545.838 165.01 541.72 164.662 537.718 163.908C535.804 163.56 533.658 163.212 532.44 161.53C531.222 159.79 531.454 157.528 532.614 155.904C533.252 154.918 531.744 154.048 531.106 154.976Z" fill="#161616"/>
<path d="M532.962 164.373C532.962 167.273 533.02 170.231 533.368 173.131C533.542 174.465 533.832 175.625 534.934 176.437C536.5 177.597 539.11 177.539 540.966 177.713C544.098 177.945 547.288 177.945 550.42 177.829C553.378 177.713 556.336 177.481 559.294 177.191C561.034 177.017 563.006 177.075 564.34 175.741C567.298 172.841 567.356 167.331 566.602 163.677C566.37 162.575 564.688 163.039 564.92 164.141C565.326 166.113 565.442 168.085 565.036 170.115C564.456 172.957 563.644 174.813 560.454 175.393C556.742 176.089 552.566 176.089 548.796 176.147C545.084 176.205 540.908 176.379 537.254 175.509C533.89 174.697 534.76 167.157 534.76 164.373C534.702 163.271 532.962 163.271 532.962 164.373Z" fill="#161616"/>
<path d="M533.542 101.906C540.502 106.256 545.78 112.636 548.738 120.292C549.144 121.336 550.826 120.872 550.42 119.828C547.288 111.708 541.778 104.98 534.47 100.398C533.484 99.7603 532.614 101.268 533.542 101.906Z" fill="#161616"/>
<path d="M550.13 120.292C553.552 113.1 558.54 106.952 564.92 102.196C565.79 101.558 564.92 99.9923 564.05 100.688C557.438 105.618 552.218 111.998 548.622 119.422C548.158 120.408 549.666 121.278 550.13 120.292Z" fill="#161616"/>
<path d="M548.738 118.263C549.608 130.211 550.014 142.159 549.84 154.107C549.84 155.209 551.58 155.209 551.58 154.107C551.754 142.159 551.348 130.153 550.478 118.263C550.362 117.103 548.622 117.103 548.738 118.263Z" fill="#161616"/>
<path d="M480.82 147.495C488.534 144.885 496.19 142.275 503.904 139.665C504.948 139.317 504.484 137.635 503.44 137.983C495.726 140.593 488.07 143.203 480.356 145.813C479.254 146.161 479.718 147.843 480.82 147.495Z" fill="#161616"/>
<path d="M489.636 135.895C492.304 135.141 494.972 134.329 497.64 133.575C498.684 133.285 498.278 131.603 497.176 131.893C494.508 132.647 491.84 133.459 489.172 134.213C488.128 134.561 488.534 136.243 489.636 135.895Z" fill="#161616"/>
<path d="M470.322 116.581C480.53 116.465 490.68 116.755 500.83 117.393C501.932 117.451 501.932 115.711 500.83 115.653C490.68 115.015 480.472 114.783 470.322 114.841C469.22 114.841 469.22 116.581 470.322 116.581Z" fill="#161616"/>
<path d="M491.898 108.692C494.334 109.33 496.828 109.62 499.322 109.678C500.424 109.678 500.424 107.938 499.322 107.938C496.944 107.88 494.624 107.59 492.362 107.01C491.26 106.72 490.796 108.402 491.898 108.692Z" fill="#161616"/>
<path d="M488.128 54.6935C497.234 62.5235 505.528 71.1075 513.01 80.5035C513.706 81.3735 514.924 80.1555 514.228 79.2855C506.746 69.8895 498.452 61.2475 489.346 53.4755C488.534 52.7215 487.258 53.9395 488.128 54.6935Z" fill="#161616"/>
<path d="M513.59 71.1655C515.156 72.7895 516.664 74.4135 518.23 76.0955C518.984 76.9075 520.202 75.6895 519.448 74.8775C517.882 73.2535 516.374 71.6295 514.808 69.9475C514.054 69.1355 512.836 70.3535 513.59 71.1655Z" fill="#161616"/>
<path d="M478.268 74.4138C481.11 76.0958 484.01 77.6618 486.968 79.1118C487.954 79.6338 488.824 78.1258 487.838 77.6038C484.88 76.0958 481.98 74.5298 479.138 72.9058C478.152 72.3258 477.282 73.8338 478.268 74.4138Z" fill="#161616"/>
<path d="M579.188 61.1909C587.772 52.6069 596.356 44.0229 604.94 35.4389C605.752 34.6269 604.476 33.4089 603.722 34.2209C595.138 42.8049 586.554 51.3889 577.97 59.9729C577.158 60.7849 578.376 62.0029 579.188 61.1909Z" fill="#161616"/>
<path d="M587.83 65.1929C590.034 63.5689 592.238 62.0029 594.442 60.3789C595.312 59.7409 594.5 58.2329 593.572 58.8709C591.368 60.4949 589.164 62.0609 586.96 63.6849C586.032 64.3229 586.902 65.8309 587.83 65.1929Z" fill="#161616"/>
<path d="M552.392 49.8223C554.132 41.4123 555.466 32.9443 556.278 24.4183C556.394 23.3163 554.654 23.3163 554.538 24.4183C553.726 32.7703 552.45 41.1223 550.71 49.3583C550.478 50.4603 552.16 50.9243 552.392 49.8223Z" fill="#161616"/>
<path d="M601.17 103.181C616.946 101.731 632.664 100.281 648.44 98.8315C649.542 98.7155 649.542 96.9755 648.44 97.0915C632.664 98.5415 616.946 99.9915 601.17 101.441C600.068 101.499 600.01 103.239 601.17 103.181Z" fill="#161616"/>
<path d="M534.876 157.064C544.678 159.21 554.654 159.152 564.398 156.948C565.5 156.716 565.036 155.034 563.934 155.266C554.48 157.412 544.794 157.47 535.34 155.382C534.238 155.15 533.774 156.832 534.876 157.064Z" fill="#161616"/>
<path d="M536.326 171.796C543.808 172.782 551.29 173.014 558.83 172.492C559.932 172.434 559.932 170.694 558.83 170.752C551.29 171.274 543.808 171.042 536.326 170.056C535.224 169.94 535.224 171.68 536.326 171.796Z" fill="#161616"/>
<path d="M590.208 151.207C601.982 159.501 613.988 167.505 626.168 175.219C627.096 175.799 627.966 174.291 627.038 173.711C614.858 165.997 602.852 157.993 591.078 149.699C590.15 149.061 589.28 150.569 590.208 151.207Z" fill="#161616"/>
<path d="M442.018 559.178C430.998 572.692 420.036 586.148 409.016 599.662C421.95 645.134 429.258 657.082 433.608 656.444C436.74 655.98 438.248 649.194 439.93 641.596C444.106 622.63 441.612 606.332 439.06 596.182C446.02 588.41 452.922 580.58 459.882 572.808C453.908 568.284 447.992 563.76 442.018 559.178Z" fill="#161616" stroke="#161616" stroke-width="2" stroke-miterlimit="10"/>
<path d="M401.36 489.577C408.262 494.913 414.874 492.999 428.562 495.319C440.22 497.291 453.328 501.641 467.248 510.341C452.4 527.741 437.552 546.127 422.82 565.499C419.282 570.197 415.744 574.895 412.322 579.593C418.006 580.927 424.85 583.015 432.274 586.379C439.524 589.627 445.44 593.281 450.138 596.587C472.236 577.331 491.956 558.713 509.53 541.139C517.65 533.019 529.134 520.607 530.932 503.033C531.048 502.047 531.048 501.177 531.048 500.307C530.642 471.133 493.928 450.021 471.598 442.249C447.18 433.781 405.188 429.199 393.472 449.441C386.57 461.389 390.63 481.283 401.36 489.577Z" fill="#CD100C"/>
<path opacity="0.26" d="M444.222 460.404C443.816 465.914 442.83 472.468 440.8 479.718C439.35 484.88 437.61 489.462 435.87 493.348C433.956 494.102 432.1 494.856 430.186 495.61C442.656 500.54 455.184 505.47 467.654 510.4C458.374 521.014 449.036 532.15 439.64 543.75C429.954 555.698 420.732 567.414 411.974 578.956C418.18 580.986 424.328 583.016 430.534 584.988C452.748 560.512 474.962 535.978 497.176 511.502C499.496 504.832 499.38 499.612 498.684 495.958C495.494 478.094 473.628 463.536 444.222 460.404Z" fill="#6D6C6C"/>
<path opacity="0.23" d="M467.538 510.283C469.568 513.357 471.54 516.489 473.57 519.563C456.286 540.385 439.002 561.149 421.718 581.971C418.644 581.159 415.512 580.289 412.438 579.477C423.516 564.281 435.464 548.679 448.398 532.961C454.836 525.131 461.216 517.591 467.538 510.283Z" fill="#6D6C6C"/>
<path d="M409.828 537.139C426.938 540.271 444.106 543.345 461.216 546.477C480.994 589.629 483.198 603.549 479.486 605.927C476.818 607.609 471.25 603.433 465.044 598.735C449.5 586.961 440.858 572.925 436.16 563.471C425.836 562.079 415.512 560.629 405.188 559.237C406.696 551.871 408.262 544.505 409.828 537.139Z" fill="#161616" stroke="#161616" stroke-width="2" stroke-miterlimit="10"/>
<path d="M374.564 441.033C343.36 450.197 324.336 469.221 312.098 481.749C295.568 498.743 275.268 519.565 281.126 534.935C284.142 542.765 293.306 547.579 335.994 555.003C368.242 560.629 396.198 563.645 418.006 565.327C420.732 555.351 423.458 545.433 426.126 535.457C404.202 528.381 382.336 521.363 360.412 514.287C373.868 511.445 388.02 508.081 402.752 503.963C413.946 500.831 424.618 497.583 434.768 494.161C444.164 475.195 446.194 454.721 436.392 443.121C422.704 426.881 392.022 435.871 374.564 441.033Z" fill="#CD100C"/>
<path opacity="0.29" d="M443.99 461.102C443.7 466.844 442.714 474.21 440.046 482.33C438.422 487.26 436.566 491.552 434.71 495.09C433.144 495.206 431.578 495.38 430.012 495.496C416.788 499.846 402.694 503.964 387.788 507.792C378.16 510.286 368.764 512.432 359.658 514.404C381.64 521.306 403.622 528.15 425.604 535.052C425.14 537.43 424.56 539.924 423.864 542.534C423.052 545.55 422.124 548.334 421.254 550.886C390.92 543.404 360.586 535.922 330.252 528.44C328.86 526.758 324.278 520.668 324.974 512.606C325.728 503.848 334.08 497.642 344.752 491.958C375.608 475.602 427.344 464.524 443.99 461.102Z" fill="#6D6C6C"/>
<path opacity="0.24" d="M344.056 515.62C349.566 515.214 355.134 514.808 360.644 514.344C382.278 521.536 403.912 528.786 425.546 535.978C424.618 539.4 423.69 542.88 422.762 546.302C396.546 536.036 370.272 525.828 344.056 515.62Z" fill="#6D6C6C"/>
<path d="M366.386 309.604C374.97 304.558 389.876 297.366 409.712 295.278C440.104 292.088 463.42 302.992 472.642 307.922C470.96 330.716 468.35 348.928 466.262 361.456C463.768 376.42 461.738 384.714 460.81 398.46C459.65 415.686 461.1 429.838 462.434 439.118C452.342 442.25 437.088 445.672 418.296 445.266C400.2 444.86 385.584 440.916 375.782 437.494C378.392 416.73 377.522 400.258 376.246 389.064C374.796 376.594 372.824 370.504 370.446 355.424C367.372 335.936 366.56 319.986 366.386 309.604Z" fill="white" stroke="#161616" stroke-width="2" stroke-miterlimit="10"/>
<path opacity="0.14" d="M429.142 302.18C430.36 306.588 431.752 312.678 432.68 319.986C433.318 324.916 435.928 347.246 427.808 376.71C422.82 394.864 417.542 414.062 400.258 429.838C394.69 434.942 389.296 438.364 385.352 440.51C394.11 442.772 405.536 444.918 419.05 445.034C436.74 445.208 451.356 442.018 461.506 438.886C460.926 434.536 460.172 427.982 459.882 420.094C459.65 413.192 459.65 402.172 464.406 371.142C468.176 346.724 470.844 336.226 472.178 314.128C472.352 311.576 472.41 309.43 472.526 307.98C468.292 305.486 462.782 302.76 455.996 300.556C449.732 298.526 444.106 297.482 439.466 297.018C436.102 298.7 432.622 300.44 429.142 302.18Z" fill="#6D6C6C"/>
<path opacity="0.17" d="M470.844 317.434C467.596 335.82 463.304 350.668 459.94 360.992C450.08 391.152 443.178 411.452 424.56 426.3C413.018 435.522 401.012 439.408 393.298 441.264C401.128 443.468 412.206 445.614 425.604 445.324C441.032 444.976 453.502 441.496 461.68 438.538C460.578 431.462 459.302 420.848 459.65 407.914C460.056 391.152 462.782 381.06 465.798 362.674C467.48 351.886 469.626 336.458 470.844 317.434Z" fill="#6D6C6C"/>
<path d="M366.038 309.314C358.498 314.534 348.812 322.77 340.344 335.008C321.262 362.732 321.784 392.138 322.538 402.984C326.018 412.322 331.992 424.56 342.432 436.566C348.522 443.584 357.454 453.676 372.708 460.172C377.812 462.376 382.278 463.594 385.526 464.29C388.31 461.796 391.036 459.302 393.82 456.808C384.888 446.368 375.898 435.406 366.908 424.096C360.006 415.454 353.394 406.87 347.014 398.402C347.246 391.268 348.754 378.334 356.526 364.82C360.934 357.164 366.096 351.596 370.214 347.826C368.822 335.008 367.43 322.19 366.038 309.314Z" fill="white" stroke="#161616" stroke-width="2" stroke-miterlimit="10"/>
<path opacity="0.13" d="M367.14 322.248C350.436 341.098 342.49 358.962 338.546 370.214C331.644 389.702 333.094 399.91 334.138 404.782C335.008 408.61 336.922 415.164 343.94 425.14C350.03 433.782 362.848 449.268 387.266 462.028C389.412 459.94 391.558 457.91 393.704 455.822C386.802 448.05 379.842 439.872 372.824 431.346C363.602 420.152 355.018 409.132 347.072 398.344C347.304 392.486 348.29 384.308 351.712 375.144C356.874 361.398 364.994 352.35 370.04 347.536C368.996 339.126 368.068 330.716 367.14 322.248Z" fill="#6D6C6C"/>
<path opacity="0.16" d="M347.014 399.098C348.058 405.884 350.204 414.526 354.728 423.864C364.704 444.164 380.306 455.358 388.252 460.23C389.818 458.838 391.326 457.504 392.892 456.112C377.58 437.088 362.326 418.064 347.014 399.098Z" fill="#6D6C6C"/>
<path d="M473.512 308.27C481.98 313.432 492.884 321.494 502.338 333.5C523.798 360.702 523.16 389.586 522.348 400.258C518.404 409.422 511.734 421.428 500.018 433.26C493.174 440.104 483.14 450.022 466.03 456.46C460.288 458.606 455.242 459.824 451.588 460.52C448.514 458.084 445.382 455.648 442.308 453.212C452.284 442.946 462.434 432.216 472.526 421.08C480.24 412.554 487.664 404.144 494.856 395.85C494.566 388.89 492.942 376.188 484.184 362.848C479.196 355.308 473.454 349.856 468.814 346.144C470.438 333.5 472.004 320.914 473.512 308.27Z" fill="white" stroke="#161616" stroke-width="2" stroke-miterlimit="10"/>
<path opacity="0.16" d="M473.106 322.363C480.472 330.077 490.506 342.431 498.336 359.657C502.048 367.835 508.08 381.117 508.196 393.645C508.602 431.751 454.662 457.967 451.53 459.475C448.456 457.503 445.44 455.589 442.366 453.617C459.824 434.477 477.224 415.337 494.682 396.197C494.334 389.933 492.884 378.275 485.924 365.863C480.182 355.655 473.048 349.043 468.35 345.389C469.974 337.733 471.54 330.077 473.106 322.363Z" fill="#6D6C6C"/>
<path opacity="0.12" d="M495.262 396.371C494.392 401.417 492.942 406.927 490.68 412.611C480.472 438.363 459.824 452.457 449.384 458.489C446.89 456.865 444.454 455.241 441.96 453.617C459.708 434.535 477.456 415.453 495.262 396.371Z" fill="#6D6C6C"/>
<path d="M486.852 400.664H344.23V490.97H486.852V400.664Z" fill="white" stroke="#161616" stroke-width="2" stroke-miterlimit="10"/>
<path d="M413.482 454.431C405.942 455.359 402.288 446.195 404.26 440.105C406.174 434.073 413.308 431.231 419.108 433.319C424.85 435.407 427.634 442.425 425.604 448.051C423.342 454.315 415.454 456.867 409.654 454.083C408.668 453.619 407.74 455.127 408.784 455.591C413.946 458.085 420.268 457.157 424.386 453.097C428.388 449.095 428.968 442.773 426.474 437.843C420.79 426.591 403.216 430.187 401.998 442.541C401.36 449.153 406.116 457.099 413.482 456.229C414.584 456.055 414.584 454.315 413.482 454.431Z" fill="#161616"/>
<path opacity="0.14" d="M397.764 400.433C417.078 407.161 430.244 424.387 430.65 442.889C431.172 466.089 411.684 487.897 385.12 490.101C418.934 490.391 452.748 490.681 486.62 490.971C486.504 460.695 486.446 430.419 486.33 400.201C456.808 400.201 427.286 400.317 397.764 400.433Z" fill="#6D6C6C"/>
<path opacity="0.26" d="M486.62 400.143C486.098 418.587 482.444 432.971 479.37 442.425C474.846 456.171 471.598 466.205 462.26 475.079C449.558 487.259 433.724 489.521 426.764 490.101C446.542 490.275 466.32 490.449 486.098 490.681C486.156 473.455 486.272 456.229 486.388 438.945C486.388 426.011 486.504 413.077 486.62 400.143Z" fill="#6D6C6C"/>
<path d="M411.336 262.797C408.146 266.683 411.22 271.439 410.64 284.141C410.35 290.463 409.306 295.567 408.494 298.989C411.22 300.265 416.034 302.063 422.24 302.237C429.896 302.411 435.696 300.033 438.538 298.641C437.262 296.089 435.58 292.145 434.536 287.041C431.926 274.049 436.566 267.959 432.738 263.145C428.272 257.577 415.628 257.519 411.336 262.797Z" fill="white" stroke="#161616" stroke-width="2" stroke-miterlimit="10"/>
<path d="M391.094 207.002C387.44 216.398 388.832 224.866 389.644 228.52C389.296 228.578 382.51 230.028 380.654 235.248C378.798 240.526 382.626 248.008 390.63 250.444C393.53 257.52 400.548 271.208 415.338 278.69C417.832 279.908 420.21 280.894 422.588 281.59C424.734 280.778 427.634 279.502 430.94 277.588C441.264 271.614 447.006 264.19 448.34 262.392C450.776 259.144 454.082 253.924 456.402 246.732C457.678 246.964 459.94 247.08 462.144 245.978C467.132 243.426 469.626 235.48 466.146 230.318C463.246 226.026 457.62 225.852 456.924 225.852C457.678 222.836 459.998 211.99 454.14 201.26C447.412 188.906 432.97 182.41 419.398 184.266C399.33 186.876 391.442 206.074 391.094 207.002Z" fill="white" stroke="#161616" stroke-width="2" stroke-miterlimit="10"/>
<path d="M410.582 278.168C414.12 280.256 418.006 283.504 422.356 283.156C425.952 282.866 429.954 280.778 432.68 278.574C433.55 277.878 432.332 276.66 431.462 277.356C428.91 279.386 424.792 281.532 421.428 281.474C417.89 281.416 414.294 278.458 411.394 276.66C410.524 276.08 409.654 277.588 410.582 278.168Z" fill="#161616"/>
<path d="M410.35 278.922C413.656 281.764 417.426 284.954 422.066 284.722C426.59 284.49 430.824 281.474 433.782 278.226C434.536 277.414 433.318 276.196 432.564 277.008C430.012 279.792 426.416 282.518 422.472 282.924C418.122 283.33 414.642 280.372 411.568 277.704C410.756 276.95 409.538 278.168 410.35 278.922Z" fill="#161616"/>
<path d="M412.554 279.27C412.554 279.212 412.554 279.212 412.554 279.27C412.206 278.748 411.568 278.632 411.162 279.038C411.162 279.038 411.162 279.038 411.104 279.096C410.756 279.386 410.756 280.024 411.104 280.314C417.484 286.404 429.2 288.376 433.782 279.038C434.246 278.052 432.796 277.124 432.274 278.168C428.214 286.52 417.948 284.49 412.38 279.096C412.38 279.502 412.38 279.908 412.38 280.314C412.38 280.314 412.38 280.314 412.438 280.256C411.974 280.198 411.51 280.14 411.046 280.082V280.14C411.626 281.068 413.134 280.198 412.554 279.27Z" fill="#161616"/>
<path d="M419.514 225.62C418.76 235.016 419.166 244.354 420.674 253.634C420.732 254.098 421.312 254.388 421.718 254.214C423.98 253.46 425.604 252.126 426.822 250.096C427.402 249.11 425.894 248.24 425.314 249.226C424.328 250.908 423.11 251.894 421.254 252.532C421.602 252.706 421.95 252.938 422.298 253.112C420.79 244.006 420.442 234.784 421.196 225.562C421.37 224.46 419.63 224.46 419.514 225.62Z" fill="#161616"/>
<path d="M409.19 234.842C409.306 235.364 410.176 238.612 409.19 239.134C408.204 239.656 405.42 237.568 404.55 234.842C403.854 232.522 404.434 229.622 405.536 229.39C406.696 229.1 408.494 232.29 409.19 234.842Z" fill="#161616" stroke="#161616" stroke-miterlimit="10"/>
<path d="M439.118 234.842C439.234 235.364 440.104 238.612 439.118 239.134C438.132 239.656 435.348 237.568 434.478 234.842C433.782 232.522 434.362 229.622 435.464 229.39C436.624 229.1 438.422 232.29 439.118 234.842Z" fill="#161616" stroke="#161616" stroke-miterlimit="10"/>
<path d="M417.426 261.29C424.502 264.306 430.94 260.072 436.16 255.49C437.03 254.736 435.754 253.518 434.942 254.272C430.418 258.216 424.618 262.45 418.354 259.782C417.252 259.376 416.382 260.884 417.426 261.29Z" fill="#161616"/>
<path d="M437.842 244.064C438.944 244.064 438.944 242.324 437.842 242.324C436.74 242.324 436.74 244.064 437.842 244.064Z" fill="#161616"/>
<path d="M444.28 240.815C444.338 240.757 444.396 240.699 444.454 240.641C444.802 240.293 444.802 239.771 444.454 239.423C444.106 239.075 443.584 239.075 443.236 239.423C443.178 239.481 443.12 239.539 443.062 239.597C442.714 239.945 442.714 240.467 443.062 240.815C443.41 241.163 443.932 241.163 444.28 240.815Z" fill="#161616"/>
<path d="M442.366 245.051C442.424 245.051 442.482 245.051 442.54 245.051C443.004 245.051 443.41 244.645 443.41 244.181C443.41 243.717 443.004 243.311 442.54 243.311C442.482 243.311 442.424 243.311 442.366 243.311C441.902 243.311 441.496 243.717 441.496 244.181C441.496 244.645 441.844 245.051 442.366 245.051Z" fill="#161616"/>
<path d="M402.346 224.459C404.55 222.603 407.798 222.545 410.002 224.343C410.872 225.039 412.09 223.821 411.22 223.125C408.204 220.689 404.028 220.689 401.07 223.241C400.258 223.937 401.534 225.155 402.346 224.459Z" fill="#161616"/>
<path d="M430.65 223.822C433.144 221.618 436.682 221.212 439.64 222.778C440.626 223.3 441.496 221.792 440.51 221.27C436.856 219.298 432.506 219.82 429.432 222.604C428.562 223.358 429.78 224.576 430.65 223.822Z" fill="#161616"/>
<path d="M402.81 243.89C403.912 243.89 403.912 242.15 402.81 242.15C401.708 242.15 401.708 243.89 402.81 243.89Z" fill="#161616"/>
<path d="M408.958 243.078C410.06 243.078 410.06 241.338 408.958 241.338C407.856 241.338 407.856 243.078 408.958 243.078Z" fill="#161616"/>
<path d="M405.884 244.411C405.826 244.469 405.768 244.527 405.71 244.585C405.362 244.933 405.362 245.455 405.71 245.803C406.058 246.151 406.58 246.151 406.928 245.803C406.986 245.745 407.044 245.687 407.102 245.629C407.45 245.281 407.45 244.759 407.102 244.411C406.754 244.063 406.232 244.063 405.884 244.411Z" fill="#161616"/>
<path d="M400.548 188.152C397.068 190.298 389.47 194.996 384.308 204.624C379.146 214.194 379.204 223.242 379.436 227.128C370.968 242.382 367.14 255.838 365.284 265.002C362.268 279.56 363.892 284.896 365.98 288.434C371.084 297.134 381.35 299.28 383.844 299.802C396.662 302.528 406.87 295.974 409.19 294.466C409.828 292.552 410.466 290.174 410.814 287.506C411.452 282.924 411.104 278.98 410.582 276.138C407.682 273.76 404.318 270.57 401.07 266.394C396.14 260.014 393.356 253.75 391.79 249.226C386.686 248.704 382.858 245.224 382.51 241.338C382.162 237.684 384.714 232.986 388.078 232.986C390.572 232.986 392.37 235.538 392.718 236.002C394.632 234.9 397.3 232.986 399.678 229.97C403.1 225.62 403.68 221.734 405.246 217.674C406.754 213.73 409.654 208.278 415.918 202.594C421.95 204.74 426.764 206.828 430.07 208.394C440.684 213.324 446.716 216.224 451.414 222.546C454.024 226.026 455.358 229.448 456.054 231.594C461.448 227.476 463.652 228.578 464.116 228.81C467.538 230.724 467.422 241.222 462.086 244.122C460.056 245.224 457.736 244.934 456.286 244.586C454.604 250.444 450.892 260.014 442.366 268.482C439.524 271.324 436.624 273.528 434.014 275.21C433.782 277.356 433.666 280.314 434.246 283.794C434.768 286.984 435.696 289.594 436.566 291.45C450.66 300.73 468.176 299.048 477.688 289.072C486.156 280.14 486.156 266.626 482.966 257.404C480.066 248.994 474.44 243.948 471.656 241.744C472.41 238.496 476.586 219.24 464.464 201.55C461.332 196.968 452.574 185.89 436.798 182.062C420.094 178.002 406.348 184.614 400.548 188.152Z" fill="#5222D0"/>
<path opacity="0.17" d="M437.32 211.99C443.874 220.226 445.614 227.824 446.194 231.768C448.572 248.356 438.944 261.812 434.072 268.714C430.07 274.34 425.952 278.342 422.994 280.952C425.546 287.796 428.04 294.582 430.592 301.426C433.202 300.556 435.812 299.686 438.422 298.816C437.204 296.67 435.928 294.002 434.942 290.754C433.144 284.954 433.028 279.85 433.202 276.37C436.392 274.108 440.104 271.034 443.7 266.974C450.892 258.854 454.488 250.502 456.344 244.876C457.504 245.108 459.998 245.398 462.376 244.064C467.364 241.222 466.552 234.146 466.494 233.682C466.32 232.174 465.972 229.738 464.232 228.752C462.202 227.65 458.838 228.694 456.17 231.826C455.358 228.984 453.038 222.43 446.774 217.21C443.294 214.31 439.756 212.802 437.32 211.99Z" fill="#6D6C6C"/>
<path opacity="0.19" d="M420.326 226.141C419.978 226.083 418.818 231.129 415.28 253.401C417.31 253.401 419.34 253.401 421.37 253.401C420.964 250.443 420.5 246.151 420.268 240.931C419.978 231.999 420.674 226.199 420.326 226.141Z" fill="#6D6C6C"/>
<path opacity="0.54" d="M471.308 242.323C470.322 242.903 474.034 247.891 473.512 255.315C473.338 257.635 472.99 262.913 468.814 266.451C468.524 266.683 462.318 271.787 456.17 268.539C452.516 266.625 450.312 262.565 450.428 258.157C448.688 261.405 445.846 265.697 441.38 269.873C438.596 272.483 435.87 274.397 433.492 275.847C433.318 278.399 433.318 281.879 434.246 285.823C434.768 287.969 435.406 289.825 436.044 291.333C437.842 292.493 440.51 294.059 443.99 295.277C446.194 296.031 458.316 300.265 470.148 294.407C472.236 293.363 476.876 290.985 480.24 285.881C480.646 285.243 482.154 282.981 483.256 279.153C487.2 266.045 481.4 254.213 480.878 253.227C477.688 246.789 472.526 241.627 471.308 242.323Z" fill="#341999"/>
<path opacity="0.35" d="M391.732 249.458C391.21 249.516 392.37 254.272 391.094 258.97C390.166 262.45 387.208 268.134 382.162 269.294C376.884 270.454 370.33 266.568 367.314 259.318C365.922 262.508 364.066 267.612 363.776 274.108C363.602 278.342 363.37 282.866 365.458 287.332C370.156 297.308 383.96 301.194 394.226 300.266C401.07 299.628 406.232 296.96 409.016 295.162C409.712 293.19 410.408 290.812 410.872 288.086C411.626 283.388 411.452 279.27 411.046 276.254C406.464 272.948 403.332 269.526 401.36 267.032C398.576 263.494 394.806 258.738 392.892 252.126C392.602 251.372 392.08 249.4 391.732 249.458Z" fill="#341999"/>
</svg>
